SplineFontDB: 3.0
FontName: Comme-Light
FullName: Comme Light
FamilyName: Comme
Weight: Light
Copyright: Digitized data Copyright (c) 2011-2014, vernon adams.
Version: 2
ItalicAngle: 0
UnderlinePosition: 0
UnderlineWidth: 0
Ascent: 1638
Descent: 410
UFOAscent: 1560
UFODescent: -556
LayerCount: 2
Layer: 0 0 "Back"  1
Layer: 1 0 "Fore"  0
FSType: 0
OS2Version: 0
OS2_WeightWidthSlopeOnly: 0
OS2_UseTypoMetrics: 0
CreationTime: 1392151714
ModificationTime: 1392242562
PfmFamily: 17
TTFWeight: 300
TTFWidth: 5
LineGap: 0
VLineGap: 0
OS2TypoAscent: 1638
OS2TypoAOffset: 0
OS2TypoDescent: -512
OS2TypoDOffset: 0
OS2TypoLinegap: 0
OS2WinAscent: 2390
OS2WinAOffset: 0
OS2WinDescent: 512
OS2WinDOffset: 0
HheadAscent: 0
HheadAOffset: 1
HheadDescent: 0
HheadDOffset: 1
OS2Vendor: 'NeWT'
Lookup: 4 0 1 "ligaStandardLigatureslookup0"  {"ligaStandardLigatureslookup0 subtable"  } ['liga' ('latn' <'dflt' > 'grek' <'dflt' > 'DFLT' <'dflt' > ) ]
Lookup: 4 0 0 "fracDiagonalFractionslookup11"  {"fracDiagonalFractionslookup11 subtable"  } ['frac' ('latn' <'dflt' 'CAT ' 'MOL ' 'ROM ' 'TRK ' > 'grek' <'dflt' > 'DFLT' <'dflt' > ) ]
Lookup: 6 0 0 "ordnOrdinalslookup12"  {"ordnOrdinalslookup12 contextual 0"  "ordnOrdinalslookup12 contextual 1"  } ['ordn' ('latn' <'dflt' 'CAT ' 'MOL ' 'ROM ' 'TRK ' > 'grek' <'dflt' > 'DFLT' <'dflt' > ) ]
Lookup: 1 0 0 "Single Substitution lookup 3"  {"Single Substitution lookup 3 subtable"  } []
Lookup: 1 0 0 "Single Substitution lookup 4"  {"Single Substitution lookup 4 subtable"  } []
Lookup: 4 0 0 "dligDiscretionaryLigatureslooku"  {"dligDiscretionaryLigatureslooku subtable"  } ['dlig' ('latn' <'dflt' 'CAT ' 'MOL ' 'ROM ' 'TRK ' > 'grek' <'dflt' > 'DFLT' <'dflt' > ) ]
MarkAttachClasses: 1
DEI: 91125
ChainSub2: coverage "ordnOrdinalslookup12 contextual 1"  0 0 0 1
 1 1 0
  Coverage: 3 O o
  BCoverage: 49 zero one two three four five six seven eight nine
 1
  SeqLookup: 0 "Single Substitution lookup 4" 
EndFPST

StartChar: A
Encoding: 65 65 0
Width: 1379
VWidth: 0
GlyphClass: 2
Flags: W
PickledData: "(dp1
S'org.pippin.gimp.org.kernagic'
p2
(dp3
S'lstem'
p4
I0
sS'rstem'
p5
I0
ssS'com.typemytype.robofont.layerData'
p6
(dp7
sS'org.robofab.postScriptHintData'
p8
(dp9
s."
AnchorPoint: "top" 686 1456 basechar 0
AnchorPoint: "bot" 688 0 basechar 0
LayerCount: 2
Fore
SplineSet
613 1456 m 257
 61 0 l 257
 216 0 l 257
 393 473 l 257
 987 473 l 257
 1164 0 l 257
 1318 0 l 257
 761 1456 l 257
 613 1456 l 257
432 586 m 257
 688 1291 l 257
 948 586 l 257
 432 586 l 257
EndSplineSet
Substitution2: "Single Substitution lookup 3 subtable" ordfeminine
EndChar

StartChar: AE
Encoding: 198 198 1
Width: 1644
VWidth: 0
GlyphClass: 2
Flags: W
PickledData: "(dp1
S'org.pippin.gimp.org.kernagic'
p2
(dp3
S'lstem'
p4
I0
sS'rstem'
p5
I0
ssS'com.typemytype.robofont.layerData'
p6
(dp7
sS'org.robofab.postScriptHintData'
p8
(dp9
s."
LayerCount: 2
Fore
SplineSet
826 594 m 257
 426 594 l 257
 826 1325 l 257
 826 594 l 257
742 1456 m 257
 -70 0 l 257
 99 0 l 257
 366 481 l 257
 826 481 l 257
 826 0 l 257
 1596 0 l 257
 1607 123 l 257
 977 123 l 257
 977 699 l 257
 1523 699 l 257
 1523 821 l 257
 977 821 l 257
 977 1334 l 257
 1590 1334 l 257
 1595 1456 l 257
 742 1456 l 257
EndSplineSet
EndChar

StartChar: B
Encoding: 66 66 13
Width: 1366
VWidth: 0
GlyphClass: 2
Flags: W
PickledData: "(dp1
S'org.pippin.gimp.org.kernagic'
p2
(dp3
S'lstem'
p4
I0
sS'rstem'
p5
I0
ssS'com.typemytype.robofont.layerData'
p6
(dp7
sS'org.robofab.postScriptHintData'
p8
(dp9
s."
AnchorPoint: "top" 661 1456 basechar 0
LayerCount: 2
Fore
SplineSet
556 -11 m 256
 1053 -11 1233 120 1233 425 c 256
 1233 606 1143 734 929 785 c 257
 1124 847 1178 963 1178 1100 c 256
 1178 1259 1150 1465 607 1465 c 256
 497 1465 366 1456 209 1437 c 257
 209 6 l 257
 339 -5 454 -11 556 -11 c 256
367 1334 m 257
 463 1343 546 1348 617 1348 c 256
 941 1348 1037 1265 1037 1091 c 256
 1037 879 873 840 678 840 c 258
 367 840 l 257
 367 1334 l 257
367 724 m 257
 652 724 l 258
 946 724 1077 638 1077 418 c 256
 1077 239 1037 111 588 111 c 256
 523 111 450 113 367 118 c 257
 367 724 l 257
EndSplineSet
EndChar

StartChar: C
Encoding: 67 67 14
Width: 1395
VWidth: 0
GlyphClass: 2
Flags: W
PickledData: "(dp1
S'org.pippin.gimp.org.kernagic'
p2
(dp3
S'lstem'
p4
I0
sS'rstem'
p5
I0
ssS'com.typemytype.robofont.layerData'
p6
(dp7
sS'org.robofab.postScriptHintData'
p8
(dp9
s."
AnchorPoint: "top" 776 1456 basechar 0
AnchorPoint: "bot" 793 1 basechar 0
LayerCount: 2
Fore
SplineSet
1314 1116 m 257
 1254 1365 1015 1477 796 1477 c 256
 411 1477 154 1202 154 729 c 256
 154 256 411 -19 796 -19 c 256
 1015 -19 1257 92 1318 342 c 257
 1206 382 l 257
 1191 382 l 257
 1148 217 986 109 804 109 c 256
 507 109 313 325 313 729 c 256
 313 1134 508 1349 806 1349 c 256
 987 1349 1145 1239 1188 1075 c 257
 1203 1075 l 257
 1314 1116 l 257
EndSplineSet
EndChar

StartChar: D
Encoding: 68 68 21
Width: 1501
VWidth: 0
GlyphClass: 2
Flags: W
PickledData: "(dp1
S'org.pippin.gimp.org.kernagic'
p2
(dp3
S'lstem'
p4
I0
sS'rstem'
p5
I0
ssS'com.fontlab.hintData'
p6
(dp7
S'vhints'
p8
((dp9
S'position'
p10
I1280
sS'width'
p11
I122
stp12
sS'hhints'
p13
((dp14
g10
I0
sg11
I94
s(dp15
g10
I1355
sg11
I94
stp16
ssS'com.typemytype.robofont.layerData'
p17
(dp18
sS'org.robofab.postScriptHintData'
p19
(dp20
s."
HStem: 0 94 1355 94
VStem: 1280 122
AnchorPoint: "top" 741 1456 basechar 0
AnchorPoint: "bot" 776 -1 basechar 0
LayerCount: 2
Fore
SplineSet
209 9 m 257
 318 -3 418 -10 509 -10 c 256
 1141 -10 1347 282 1347 741 c 256
 1347 1180 1201 1463 577 1463 c 256
 469 1463 347 1455 209 1437 c 257
 209 9 l 257
367 111 m 257
 367 1335 l 257
 448 1343 521 1348 587 1348 c 256
 1071 1348 1189 1127 1189 736 c 256
 1189 356 1061 102 550 102 c 256
 494 102 433 105 367 111 c 257
EndSplineSet
EndChar

StartChar: uni0394
Encoding: 916 916 24
Width: 1339
VWidth: 0
GlyphClass: 2
Flags: W
PickledData: "(dp1
S'org.pippin.gimp.org.kernagic'
p2
(dp3
S'lstem'
p4
I0
sS'rstem'
p5
I0
ssS'com.typemytype.robofont.layerData'
p6
(dp7
S'b'
(dp8
S'name'
p9
S'Delta'
p10
sS'lib'
p11
(dp12
sS'unicodes'
p13
(tsS'width'
p14
I1334
sS'contours'
p15
(tsS'components'
p16
(tsS'anchors'
p17
(tsssS'org.robofab.postScriptHintData'
p18
(dp19
s."
LayerCount: 2
Fore
SplineSet
252 134 m 257
 659 1329 l 257
 1077 134 l 257
 252 134 l 257
62 0 m 257
 1268 0 l 257
 735 1486 l 257
 585 1486 l 257
 62 0 l 257
EndSplineSet
EndChar

StartChar: E
Encoding: 69 69 25
Width: 1268
VWidth: 0
GlyphClass: 2
Flags: W
PickledData: "(dp1
S'org.pippin.gimp.org.kernagic'
p2
(dp3
S'lstem'
p4
I0
sS'rstem'
p5
I0
ssS'com.typemytype.robofont.layerData'
p6
(dp7
sS'org.robofab.postScriptHintData'
p8
(dp9
s."
AnchorPoint: "top" 720 1456 basechar 0
AnchorPoint: "bot" 683 0 basechar 0
LayerCount: 2
Fore
SplineSet
209 1456 m 257
 209 0 l 257
 1140 0 l 257
 1151 123 l 257
 367 123 l 257
 367 691 l 257
 1068 691 l 257
 1068 813 l 257
 367 813 l 257
 367 1334 l 257
 1135 1334 l 257
 1140 1456 l 257
 209 1456 l 257
EndSplineSet
EndChar

StartChar: Eng
Encoding: 330 330 34
Width: 1513
VWidth: 0
GlyphClass: 2
Flags: W
PickledData: "(dp1
S'org.robofab.postScriptHintData'
p2
(dp3
s."
LayerCount: 2
Fore
SplineSet
1169 838 m 257
 1170 -6 l 258
 1170 -225 1114 -307 735 -307 c 257
 738 -426 l 257
 1156 -426 1309 -321 1309 -10 c 258
 1309 838 l 257
 1169 838 l 257
EndSplineSet
Refer: 70 78 N 1 0 0 1 0 0 2
EndChar

StartChar: Euro
Encoding: 8364 8364 37
Width: 1378
VWidth: 0
GlyphClass: 2
Flags: W
PickledData: "(dp1
S'org.pippin.gimp.org.kernagic'
p2
(dp3
S'lstem'
p4
I0
sS'rstem'
p5
I0
ssS'com.typemytype.robofont.layerData'
p6
(dp7
S'b'
(dp8
S'name'
p9
S'Euro'
p10
sS'lib'
p11
(dp12
sS'unicodes'
p13
(tsS'width'
p14
I1391
sS'contours'
p15
(tsS'components'
p16
(tsS'anchors'
p17
(tsssS'org.robofab.postScriptHintData'
p18
(dp19
s."
LayerCount: 2
Fore
SplineSet
-38 532 m 257
 832 532 l 257
 841 638 l 257
 212 638 l 257
 213 825 l 257
 841 825 l 257
 850 927 l 257
 -23 927 l 257
 -30 825 l 257
 135 825 l 257
 134 638 l 257
 -29 638 l 257
 -38 532 l 257
EndSplineSet
Refer: 14 67 N 1 0 0 1 -63 0 2
EndChar

StartChar: F
Encoding: 70 70 38
Width: 1174
VWidth: 0
GlyphClass: 2
Flags: W
PickledData: "(dp1
S'org.pippin.gimp.org.kernagic'
p2
(dp3
S'lstem'
p4
I0
sS'rstem'
p5
I705
ssS'com.typemytype.robofont.layerData'
p6
(dp7
sS'org.robofab.postScriptHintData'
p8
(dp9
s."
AnchorPoint: "top" 696 1456 basechar 0
LayerCount: 2
Fore
SplineSet
209 1456 m 257
 209 0 l 257
 368 0 l 257
 368 673 l 257
 1036 673 l 257
 1036 790 l 257
 368 790 l 257
 368 1332 l 257
 1121 1332 l 257
 1130 1456 l 257
 209 1456 l 257
EndSplineSet
EndChar

StartChar: G
Encoding: 71 71 39
Width: 1470
VWidth: 0
GlyphClass: 2
Flags: W
PickledData: "(dp1
S'org.pippin.gimp.org.kernagic'
p2
(dp3
S'lstem'
p4
I0
sS'rstem'
p5
I0
ssS'com.typemytype.robofont.layerData'
p6
(dp7
sS'org.robofab.postScriptHintData'
p8
(dp9
s."
AnchorPoint: "top" 808 1456 basechar 0
AnchorPoint: "bot" 821 1 basechar 0
LayerCount: 2
Fore
SplineSet
827 -20 m 256
 1024 -20 1176 13 1321 70 c 257
 1321 754 l 257
 850 754 l 257
 840 643 l 257
 1173 626 l 257
 1173 152 l 257
 1099 131 991 109 856 109 c 256
 464 109 313 359 313 735 c 256
 313 1106 515 1348 855 1348 c 256
 1028 1348 1159 1281 1236 1213 c 257
 1250 1213 l 257
 1319 1309 l 257
 1220 1407 1048 1475 851 1475 c 256
 422 1475 154 1186 154 734 c 256
 154 297 374 -20 827 -20 c 256
EndSplineSet
EndChar

StartChar: H
Encoding: 72 72 45
Width: 1526
VWidth: 0
GlyphClass: 2
Flags: W
PickledData: "(dp1
S'org.pippin.gimp.org.kernagic'
p2
(dp3
S'lstem'
p4
I0
sS'rstem'
p5
I0
ssS'com.typemytype.robofont.layerData'
p6
(dp7
sS'org.robofab.postScriptHintData'
p8
(dp9
s."
AnchorPoint: "top" 774 1456 basechar 0
LayerCount: 2
Fore
SplineSet
1156 686 m 257
 1156 0 l 257
 1314 0 l 257
 1314 1456 l 257
 1156 1456 l 257
 1156 811 l 257
 370 811 l 257
 370 1456 l 257
 212 1456 l 257
 212 0 l 257
 370 0 l 257
 370 686 l 257
 1156 686 l 257
EndSplineSet
EndChar

StartChar: Hbar
Encoding: 294 294 46
Width: 1478
VWidth: 0
GlyphClass: 2
Flags: W
PickledData: "(dp1
S'org.pippin.gimp.org.kernagic'
p2
(dp3
S'lstem'
p4
I0
sS'rstem'
p5
I0
ssS'com.typemytype.robofont.layerData'
p6
(dp7
sS'org.robofab.postScriptHintData'
p8
(dp9
s."
LayerCount: 2
Fore
SplineSet
72 1251 m 257
 72 1146 l 257
 1397 1146 l 257
 1397 1251 l 257
 72 1251 l 257
EndSplineSet
Refer: 45 72 N 1 0 0 1 0 0 2
EndChar

StartChar: I
Encoding: 73 73 48
Width: 919
VWidth: 0
GlyphClass: 2
Flags: W
PickledData: "(dp1
S'org.pippin.gimp.org.kernagic'
p2
(dp3
S'lstem'
p4
I0
sS'rstem'
p5
I0
ssS'com.fontlab.hintData'
p6
(dp7
S'vhints'
p8
((dp9
S'position'
p10
I111
sS'width'
p11
I529
stp12
sS'hhints'
p13
((dp14
g10
I0
sg11
I86
s(dp15
g10
I1363
sg11
I86
stp16
ssS'com.typemytype.robofont.layerData'
p17
(dp18
sS'org.robofab.postScriptHintData'
p19
(dp20
s."
HStem: 0 86 1363 86
VStem: 111 529
AnchorPoint: "top" 456 1456 basechar 0
LayerCount: 2
Fore
SplineSet
181 1456 m 257
 181 1357 l 257
 377 1357 l 257
 377 99 l 257
 181 99 l 257
 181 0 l 257
 729 0 l 257
 729 99 l 257
 535 99 l 257
 535 1357 l 257
 729 1357 l 257
 729 1456 l 257
 181 1456 l 257
EndSplineSet
EndChar

StartChar: J
Encoding: 74 74 59
Width: 769
VWidth: 0
GlyphClass: 2
Flags: W
PickledData: "(dp1
S'org.pippin.gimp.org.kernagic'
p2
(dp3
S'lstem'
p4
I132
sS'rstem'
p5
I0
ssS'com.typemytype.robofont.layerData'
p6
(dp7
sS'org.robofab.postScriptHintData'
p8
(dp9
s."
AnchorPoint: "top" 459 1456 basechar 0
LayerCount: 2
Fore
SplineSet
376 1456 m 257
 376 17 l 258
 376 -152 361 -175 243 -223 c 257
 138 -267 l 257
 186 -386 l 257
 262 -359 l 258
 480 -281 534 -236 534 24 c 258
 534 1456 l 257
 376 1456 l 257
EndSplineSet
EndChar

StartChar: K
Encoding: 75 75 61
Width: 1292
VWidth: 0
GlyphClass: 2
Flags: W
PickledData: "(dp1
S'org.pippin.gimp.org.kernagic'
p2
(dp3
S'lstem'
p4
I0
sS'rstem'
p5
I851
ssS'com.typemytype.robofont.layerData'
p6
(dp7
sS'org.robofab.postScriptHintData'
p8
(dp9
s."
AnchorPoint: "top" 668 1456 basechar 0
AnchorPoint: "bot" 670 0 basechar 0
LayerCount: 2
Fore
SplineSet
1253 1456 m 257
 1080 1456 l 257
 367 743 l 257
 367 1456 l 257
 209 1456 l 257
 209 0 l 257
 367 0 l 257
 367 595 l 257
 527 751 l 257
 1112 0 l 257
 1290 0 l 257
 1290 17 l 257
 644 835 l 257
 1253 1437 l 257
 1253 1456 l 257
EndSplineSet
EndChar

StartChar: L
Encoding: 76 76 63
Width: 1090
VWidth: 0
GlyphClass: 2
Flags: W
PickledData: "(dp1
S'org.pippin.gimp.org.kernagic'
p2
(dp3
S'lstem'
p4
I0
sS'rstem'
p5
I597
ssS'com.typemytype.robofont.layerData'
p6
(dp7
sS'org.robofab.postScriptHintData'
p8
(dp9
s."
AnchorPoint: "top" 468 1456 basechar 0
AnchorPoint: "bot" 641 0 basechar 0
LayerCount: 2
Fore
SplineSet
209 1456 m 257
 209 0 l 257
 1073 0 l 257
 1076 123 l 257
 367 123 l 257
 367 1456 l 257
 209 1456 l 257
EndSplineSet
EndChar

StartChar: M
Encoding: 77 77 69
Width: 1797
VWidth: 0
GlyphClass: 2
Flags: W
PickledData: "(dp1
S'org.pippin.gimp.org.kernagic'
p2
(dp3
S'lstem'
p4
I0
sS'rstem'
p5
I0
ssS'org.robofab.postScriptHintData'
p6
(dp7
sS'com.typemytype.robofont.guides'
p8
((dp9
S'y'
I378
sS'x'
I548
sS'magnetic'
p10
I5
sS'angle'
p11
I0
sS'isGlobal'
p12
I00
stp13
sS'com.typemytype.robofont.layerData'
p14
(dp15
sS'com.fontlab.hintData'
p16
(dp17
S'vhints'
p18
((dp19
S'position'
p20
I185
sS'width'
p21
I166
s(dp22
g20
I214
sg21
I151
s(dp23
g20
I332
sg21
I33
s(dp24
g20
I1463
sg21
I149
s(dp25
g20
I1463
sg21
I39
s(dp26
g20
I1477
sg21
I164
stp27
ss."
VStem: 185 166 214 151 332 33 1463 149 1463 39 1477 164
AnchorPoint: "top" 911 1456 basechar 0
LayerCount: 2
Fore
SplineSet
190 0 m 257
 338 0 l 257
 338 494 l 257
 347 1264 l 257
 831 160 l 257
 967 160 l 257
 1452 1253 l 257
 1461 496 l 257
 1461 0 l 257
 1608 0 l 257
 1608 494 l 257
 1585 1456 l 257
 1394 1456 l 257
 900 339 l 257
 410 1456 l 257
 212 1456 l 257
 190 494 l 257
 190 0 l 257
EndSplineSet
EndChar

StartChar: N
Encoding: 78 78 70
Width: 1519
VWidth: 0
GlyphClass: 2
Flags: W
PickledData: "(dp1
S'org.pippin.gimp.org.kernagic'
p2
(dp3
S'lstem'
p4
I0
sS'rstem'
p5
I0
ssS'com.typemytype.robofont.layerData'
p6
(dp7
sS'org.robofab.postScriptHintData'
p8
(dp9
s."
AnchorPoint: "top" 787 1456 basechar 0
AnchorPoint: "bot" 773 0 basechar 0
LayerCount: 2
Fore
SplineSet
1170 1456 m 257
 1170 609 l 257
 1180 198 l 257
 366 1456 l 257
 209 1456 l 257
 209 0 l 257
 350 0 l 257
 350 808 l 257
 336 1249 l 257
 1148 0 l 257
 1310 0 l 257
 1310 1456 l 257
 1170 1456 l 257
EndSplineSet
EndChar

StartChar: O
Encoding: 79 79 76
Width: 1622
VWidth: 0
GlyphClass: 2
Flags: W
PickledData: "(dp1
S'org.pippin.gimp.org.kernagic'
p2
(dp3
S'lstem'
p4
I0
sS'rstem'
p5
I0
ssS'org.robofab.postScriptHintData'
p6
(dp7
sS'com.typemytype.robofont.guides'
p8
(tsS'com.typemytype.robofont.layerData'
p9
(dp10
sS'com.fontlab.hintData'
p11
(dp12
S'vhints'
p13
((dp14
S'position'
p15
I150
sS'width'
p16
I122
s(dp17
g15
I1390
sg16
I122
stp18
sS'hhints'
p19
((dp20
g15
I-19
sg16
I96
s(dp21
g15
I1372
sg16
I96
stp22
ss."
HStem: -19 96 1372 96
VStem: 150 122 1390 122
AnchorPoint: "top" 814 1456 basechar 0
LayerCount: 2
Fore
SplineSet
1307 719 m 256
 1307 357 1178 107 812 107 c 256
 446 107 316 357 316 719 c 256
 316 1098 460 1349 814 1349 c 256
 1170 1349 1307 1095 1307 719 c 256
157 720 m 256
 157 272 362 -20 814 -20 c 256
 1260 -20 1465 278 1465 716 c 256
 1465 1176 1247 1476 815 1476 c 256
 373 1476 157 1180 157 720 c 256
EndSplineSet
Substitution2: "Single Substitution lookup 4 subtable" ordmasculine
EndChar

StartChar: OE
Encoding: 338 338 77
Width: 2447
VWidth: 0
GlyphClass: 2
Flags: W
PickledData: "(dp1
S'org.pippin.gimp.org.kernagic'
p2
(dp3
S'lstem'
p4
I0
sS'rstem'
p5
I0
ssS'com.typemytype.robofont.layerData'
p6
(dp7
S'b'
(dp8
S'name'
p9
S'OE'
p10
sS'lib'
p11
(dp12
sS'unicodes'
p13
(tsS'width'
p14
I2367
sS'contours'
p15
(tsS'components'
p16
(tsS'anchors'
p17
(tsssS'org.robofab.postScriptHintData'
p18
(dp19
s."
LayerCount: 2
Fore
SplineSet
1296 719 m 256
 1296 357 1167 107 802 107 c 256
 436 107 306 357 306 719 c 256
 306 1098 449 1349 804 1349 c 256
 1159 1349 1296 1095 1296 719 c 256
147 720 m 256
 147 272 352 -20 804 -20 c 256
 1030 -20 1200 66 1297 215 c 257
 1297 0 l 257
 2228 0 l 257
 2239 123 l 257
 1455 123 l 257
 1455 691 l 257
 2156 691 l 257
 2156 813 l 257
 1455 813 l 257
 1455 1334 l 257
 2222 1334 l 257
 2228 1456 l 257
 1297 1456 l 257
 1297 1231 l 257
 1199 1387 1026 1476 805 1476 c 256
 363 1476 147 1180 147 720 c 256
EndSplineSet
EndChar

StartChar: Oslash
Encoding: 216 216 85
Width: 1629
VWidth: 0
GlyphClass: 2
Flags: W
PickledData: "(dp1
S'org.pippin.gimp.org.kernagic'
p2
(dp3
S'lstem'
p4
I0
sS'rstem'
p5
I0
ssS'com.typemytype.robofont.layerData'
p6
(dp7
sS'org.robofab.postScriptHintData'
p8
(dp9
s."
AnchorPoint: "top" 815 1456 basechar 0
LayerCount: 2
Fore
SplineSet
812 107 m 256
 753 107 700 113 653 127 c 257
 1094 1271 l 257
 1244 1169 1307 972 1307 719 c 256
 1307 357 1178 107 812 107 c 256
565 159 m 257
 385 250 316 455 316 719 c 256
 316 1098 460 1349 814 1349 c 256
 888 1349 952 1337 1008 1317 c 257
 565 159 l 257
511 -243 m 257
 607 4 l 257
 669 -12 738 -20 814 -20 c 256
 1260 -20 1465 278 1465 716 c 256
 1465 1038 1357 1282 1144 1399 c 257
 1240 1648 l 257
 1147 1683 l 257
 1054 1439 l 257
 984 1463 904 1476 815 1476 c 256
 373 1476 157 1180 157 720 c 256
 157 385 272 137 518 34 c 257
 424 -212 l 257
 511 -243 l 257
EndSplineSet
EndChar

StartChar: P
Encoding: 80 80 88
Width: 1273
VWidth: 0
GlyphClass: 2
Flags: W
PickledData: "(dp1
S'org.pippin.gimp.org.kernagic'
p2
(dp3
S'lstem'
p4
I0
sS'rstem'
p5
I807
ssS'com.typemytype.robofont.layerData'
p6
(dp7
sS'org.robofab.postScriptHintData'
p8
(dp9
s."
AnchorPoint: "top" 670 1456 basechar 0
LayerCount: 2
Fore
SplineSet
209 1437 m 257
 209 0 l 257
 367 0 l 257
 367 667 l 257
 448 660 520 657 586 657 c 256
 1068 657 1175 826 1175 1077 c 256
 1175 1337 1037 1463 610 1463 c 256
 497 1463 364 1455 209 1437 c 257
367 782 m 257
 367 1335 l 257
 466 1344 551 1348 623 1348 c 256
 954 1348 1030 1256 1030 1076 c 256
 1030 876 962 772 595 772 c 256
 529 772 453 775 367 782 c 257
EndSplineSet
EndChar

StartChar: Q
Encoding: 81 81 89
Width: 1601
VWidth: 0
GlyphClass: 2
Flags: W
PickledData: "(dp1
S'org.pippin.gimp.org.kernagic'
p2
(dp3
S'lstem'
p4
I0
sS'rstem'
p5
I0
ssS'com.typemytype.robofont.layerData'
p6
(dp7
sS'org.robofab.postScriptHintData'
p8
(dp9
s."
LayerCount: 2
Fore
SplineSet
862 29 m 257
 881 -8 1174 -413 1181 -424 c 257
 1281 -351 l 257
 1266 -336 1003 32 992 55 c 257
 862 29 l 257
EndSplineSet
Refer: 76 79 N 1 0 0 1 0 0 2
EndChar

StartChar: R
Encoding: 82 82 90
Width: 1342
VWidth: 0
GlyphClass: 2
Flags: W
PickledData: "(dp1
S'org.pippin.gimp.org.kernagic'
p2
(dp3
S'lstem'
p4
I0
sS'rstem'
p5
I839
ssS'com.fontlab.hintData'
p6
(dp7
S'vhints'
p8
((dp9
S'position'
p10
I1122
sS'width'
p11
I117
stp12
sS'hhints'
p13
((dp14
g10
I722
sg11
I96
s(dp15
g10
I1355
sg11
I94
stp16
ssS'com.typemytype.robofont.layerData'
p17
(dp18
sS'org.robofab.postScriptHintData'
p19
(dp20
s."
HStem: 722 96 1355 94
VStem: 1122 117
AnchorPoint: "top" 703 1456 basechar 0
AnchorPoint: "bot" 711 0 basechar 0
LayerCount: 2
Fore
SplineSet
1222 1080 m 256
 1222 1350 1088 1463 651 1463 c 256
 529 1463 383 1454 209 1437 c 257
 209 0 l 257
 367 0 l 257
 367 686 l 257
 759 687 l 257
 1096 0 l 257
 1261 0 l 257
 1261 19 l 257
 917 703 l 257
 1115 750 1222 866 1222 1080 c 256
367 1335 m 257
 479 1344 573 1349 653 1349 c 256
 1011 1349 1077 1256 1077 1079 c 256
 1077 879 1003 798 669 798 c 258
 367 798 l 257
 367 1335 l 257
EndSplineSet
EndChar

StartChar: S
Encoding: 83 83 94
Width: 1215
VWidth: 0
GlyphClass: 2
Flags: W
PickledData: "(dp1
S'org.pippin.gimp.org.kernagic'
p2
(dp3
S'lstem'
p4
I185
sS'rstem'
p5
I826
ssS'com.typemytype.robofont.guides'
p6
((dp7
S'y'
I973
sS'x'
I1035
sS'magnetic'
p8
I5
sS'angle'
p9
F90
sS'isGlobal'
p10
I00
s(dp11
S'y'
I382
sS'x'
I75
sg8
I5
sg9
F90
sg10
I00
stp12
sS'com.typemytype.robofont.layerData'
p13
(dp14
sS'org.robofab.postScriptHintData'
p15
(dp16
s."
AnchorPoint: "top" 619 1472 basechar 0
AnchorPoint: "bot" 624 0 basechar 0
LayerCount: 2
Fore
SplineSet
945 386 m 256
 945 183 802 108 598 108 c 256
 447 108 315 154 217 247 c 257
 206 247 l 257
 124 160 l 257
 196 74 359 -20 598 -20 c 256
 840 -20 1092 74 1092 384 c 256
 1092 637 946 705 718 796 c 258
 505 882 l 257
 336 953 286 988 286 1114 c 256
 286 1296 446 1350 620 1350 c 256
 776 1350 900 1291 973 1215 c 257
 986 1215 l 257
 1062 1307 l 257
 967 1411 804 1476 622 1476 c 256
 377 1476 129 1398 129 1094 c 256
 129 893 246 833 449 750 c 258
 657 664 l 258
 877 574 945 532 945 386 c 256
EndSplineSet
EndChar

StartChar: T
Encoding: 84 84 100
Width: 1133
VWidth: 0
GlyphClass: 2
Flags: W
PickledData: "(dp1
S'org.pippin.gimp.org.kernagic'
p2
(dp3
S'lstem'
p4
I285
sS'rstem'
p5
I844
ssS'com.typemytype.robofont.layerData'
p6
(dp7
sS'org.robofab.postScriptHintData'
p8
(dp9
s."
AnchorPoint: "top" 569 1456 basechar 0
AnchorPoint: "bot" 570 0 basechar 0
LayerCount: 2
Fore
SplineSet
13 1456 m 257
 13 1335 l 257
 486 1335 l 257
 486 0 l 257
 644 0 l 257
 644 1335 l 257
 1120 1335 l 257
 1120 1456 l 257
 13 1456 l 257
EndSplineSet
EndChar

StartChar: Thorn
Encoding: 222 222 105
Width: 1193
VWidth: 0
GlyphClass: 2
Flags: W
PickledData: "(dp1
S'org.pippin.gimp.org.kernagic'
p2
(dp3
S'lstem'
p4
I0
sS'rstem'
p5
I0
ssS'com.typemytype.robofont.layerData'
p6
(dp7
S'b'
(dp8
S'name'
p9
S'Thorn'
p10
sS'lib'
p11
(dp12
sS'unicodes'
p13
(tsS'width'
p14
I1192
sS'contours'
p15
(tsS'components'
p16
(tsS'anchors'
p17
(tsssS'org.robofab.postScriptHintData'
p18
(dp19
s."
LayerCount: 2
Fore
SplineSet
198 0 m 257
 356 0 l 257
 356 455 l 257
 579 455 l 258
 907 455 1032 581 1032 830 c 256
 1032 1083 847 1166 582 1166 c 258
 356 1166 l 257
 356 1488 l 257
 198 1488 l 257
 198 0 l 257
356 1049 m 257
 581 1049 l 258
 762 1049 874 1005 874 829 c 256
 874 630 794 574 578 574 c 258
 356 574 l 257
 356 1049 l 257
EndSplineSet
EndChar

StartChar: U
Encoding: 85 85 106
Width: 1449
VWidth: 0
GlyphClass: 2
Flags: W
PickledData: "(dp1
S'org.pippin.gimp.org.kernagic'
p2
(dp3
S'lstem'
p4
I0
sS'rstem'
p5
I0
ssS'com.typemytype.robofont.layerData'
p6
(dp7
sS'org.robofab.postScriptHintData'
p8
(dp9
s."
AnchorPoint: "top" 732 1456 basechar 0
AnchorPoint: "bot" 720 1 basechar 0
LayerCount: 2
Fore
SplineSet
1113 1457 m 257
 1113 544 l 258
 1113 261 996 108 722 108 c 256
 438 108 331 261 331 544 c 258
 331 1457 l 257
 173 1457 l 257
 173 543 l 258
 173 214 331 -20 722 -20 c 256
 1109 -20 1271 220 1271 540 c 258
 1271 1457 l 257
 1113 1457 l 257
EndSplineSet
EndChar

StartChar: V
Encoding: 86 86 117
Width: 1425
VWidth: 0
GlyphClass: 2
Flags: W
PickledData: "(dp1
S'org.pippin.gimp.org.kernagic'
p2
(dp3
S'lstem'
p4
I0
sS'rstem'
p5
I0
ssS'com.typemytype.robofont.layerData'
p6
(dp7
sS'org.robofab.postScriptHintData'
p8
(dp9
s."
LayerCount: 2
Fore
SplineSet
644 0 m 257
 771 0 l 257
 1343 1456 l 257
 1174 1456 l 257
 1018 1038 861 622 708 202 c 257
 557 624 398 1038 242 1456 c 257
 82 1456 l 257
 644 0 l 257
EndSplineSet
EndChar

StartChar: W
Encoding: 87 87 118
Width: 1996
VWidth: 0
GlyphClass: 2
Flags: W
PickledData: "(dp1
S'org.pippin.gimp.org.kernagic'
p2
(dp3
S'lstem'
p4
I0
sS'rstem'
p5
I0
ssS'com.typemytype.robofont.layerData'
p6
(dp7
sS'org.robofab.postScriptHintData'
p8
(dp9
s."
AnchorPoint: "top" 1008 1456 basechar 0
AnchorPoint: "bot" 1005 0 basechar 0
LayerCount: 2
Fore
SplineSet
1008 1236 m 257
 1369 0 l 257
 1523 0 l 257
 1919 1456 l 257
 1767 1456 l 257
 1446 197 l 257
 1084 1421 l 257
 929 1421 l 257
 567 209 l 257
 216 1456 l 257
 77 1456 l 257
 486 0 l 257
 636 0 l 257
 1008 1236 l 257
EndSplineSet
EndChar

StartChar: X
Encoding: 88 88 123
Width: 1284
VWidth: 0
GlyphClass: 2
Flags: W
PickledData: "(dp1
S'org.pippin.gimp.org.kernagic'
p2
(dp3
S'lstem'
p4
I0
sS'rstem'
p5
I0
ssS'com.typemytype.robofont.layerData'
p6
(dp7
sS'org.robofab.postScriptHintData'
p8
(dp9
s."
LayerCount: 2
Fore
SplineSet
724 728 m 257
 1202 1456 l 257
 1035 1456 l 257
 643 850 l 257
 241 1456 l 257
 70 1456 l 257
 548 734 l 257
 65 0 l 257
 226 0 l 257
 631 608 l 257
 1033 0 l 257
 1207 0 l 257
 724 728 l 257
EndSplineSet
EndChar

StartChar: Y
Encoding: 89 89 124
Width: 1332
VWidth: 0
GlyphClass: 2
Flags: W
PickledData: "(dp1
S'org.pippin.gimp.org.kernagic'
p2
(dp3
S'lstem'
p4
I0
sS'rstem'
p5
I0
ssS'com.typemytype.robofont.layerData'
p6
(dp7
sS'org.robofab.postScriptHintData'
p8
(dp9
s."
AnchorPoint: "top" 667 1456 basechar 0
LayerCount: 2
Fore
SplineSet
751 531 m 257
 1252 1456 l 257
 1098 1456 l 257
 672 665 l 257
 224 1456 l 257
 80 1456 l 257
 594 533 l 257
 594 0 l 257
 751 0 l 257
 751 531 l 257
EndSplineSet
EndChar

StartChar: Z
Encoding: 90 90 129
Width: 1186
VWidth: 0
GlyphClass: 2
Flags: W
PickledData: "(dp1
S'org.pippin.gimp.org.kernagic'
p2
(dp3
S'lstem'
p4
I0
sS'rstem'
p5
I0
ssS'com.typemytype.robofont.layerData'
p6
(dp7
sS'org.robofab.postScriptHintData'
p8
(dp9
s."
AnchorPoint: "top" 667 1456 basechar 0
AnchorPoint: "bot" 652 0 basechar 0
LayerCount: 2
Fore
SplineSet
102 0 m 257
 1109 0 l 257
 1118 123 l 257
 276 123 l 257
 1111 1343 l 257
 1103 1456 l 257
 138 1456 l 257
 138 1334 l 257
 937 1334 l 257
 102 118 l 257
 102 0 l 257
EndSplineSet
EndChar

StartChar: a
Encoding: 97 97 133
Width: 1116
VWidth: 0
GlyphClass: 2
Flags: W
PickledData: "(dp1
S'org.pippin.gimp.org.kernagic'
p2
(dp3
S'lstem'
p4
I0
sS'rstem'
p5
I0
ssS'org.robofab.postScriptHintData'
p6
(dp7
sS'com.typemytype.robofont.guides'
p8
(tsS'com.typemytype.robofont.layerData'
p9
(dp10
sS'com.fontlab.hintData'
p11
(dp12
S'vhints'
p13
((dp14
S'position'
p15
I126
sS'width'
p16
I120
s(dp17
g15
I842
sg16
I32
s(dp18
g15
I875
sg16
I86
stp19
sS'hhints'
p20
((dp21
g15
I-15
sg16
I92
s(dp22
g15
I535
sg16
I82
s(dp23
g15
I983
sg16
I92
stp24
ss."
HStem: -15 92 535 82 983 92
VStem: 126 120 842 32 875 86
AnchorPoint: "top" 558 1083 basechar 0
AnchorPoint: "bot" 498 1 basechar 0
LayerCount: 2
Fore
SplineSet
483 94 m 256
 359 94 262 144 262 289 c 256
 262 421 328 495 583 495 c 258
 588 495 l 257
 806 493 l 257
 806 255 l 257
 726 150 614 94 483 94 c 256
116 290 m 256
 116 84 257 -20 465 -20 c 256
 608 -20 724 28 818 145 c 257
 829 0 l 257
 955 0 l 257
 955 716 l 258
 955 1003 790 1105 550 1105 c 256
 411 1105 258 1072 160 1008 c 257
 208 890 l 257
 308 959 446 990 552 990 c 256
 721 990 806 908 806 728 c 258
 806 595 l 257
 573 598 l 257
 561 598 l 258
 239 598 116 483 116 290 c 256
EndSplineSet
Substitution2: "Single Substitution lookup 3 subtable" ordfeminine
EndChar

StartChar: acute
Encoding: 180 180 137
Width: 716
VWidth: 0
GlyphClass: 4
Flags: W
PickledData: "(dp1
S'org.robofab.postScriptHintData'
p2
(dp3
sS'com.typemytype.robofont.layerData'
p4
(dp5
s."
AnchorPoint: "top" 317 1082 mark 0
LayerCount: 2
Fore
SplineSet
265 1209 m 257
 364 1209 l 257
 652 1578 l 257
 466 1578 l 257
 265 1209 l 257
EndSplineSet
EndChar

StartChar: ae
Encoding: 230 230 139
Width: 1681
VWidth: 0
GlyphClass: 2
Flags: W
PickledData: "(dp1
S'org.pippin.gimp.org.kernagic'
p2
(dp3
S'lstem'
p4
I0
sS'rstem'
p5
I0
ssS'com.fontlab.hintData'
p6
(dp7
S'vhints'
p8
((dp9
S'position'
p10
I126
sS'width'
p11
I119
s(dp12
g10
I817
sg11
I117
s(dp13
g10
I817
sg11
I82
s(dp14
g10
I1556
sg11
I98
stp15
sS'hhints'
p16
((dp17
g10
I-14
sg11
I98
s(dp18
g10
I518
sg11
I82
s(dp19
g10
I983
sg11
I92
stp20
ssS'com.typemytype.robofont.layerData'
p21
(dp22
sS'org.robofab.postScriptHintData'
p23
(dp24
s."
HStem: -14 98 518 82 983 92
VStem: 126 119 817 117 817 82 1556 98
AnchorPoint: "top" 891 1082 basechar 0
LayerCount: 2
Fore
SplineSet
1230 986 m 256
 1389 986 1457 888 1457 777 c 256
 1457 678 1414 596 1097 596 c 256
 1042 596 978 599 905 604 c 257
 922 848 1032 986 1230 986 c 256
440 96 m 256
 338 96 221 144 221 296 c 256
 221 425 272 519 526 519 c 256
 563 519 693 515 760 507 c 257
 760 490 760 361 767 344 c 257
 746 184 607 96 440 96 c 256
1597 788 m 256
 1597 964 1464 1102 1228 1102 c 256
 1073 1102 929 1037 857 876 c 257
 820 1043 690 1102 506 1102 c 256
 345 1102 220 1058 103 980 c 257
 165 882 l 257
 285 961 418 987 521 987 c 256
 690 987 761 912 761 725 c 258
 761 611 l 257
 690 619 548 622 507 622 c 256
 179 622 76 485 76 293 c 256
 76 86 211 -11 397 -19 c 257
 567 -19 757 42 845 207 c 257
 921 58 1066 -20 1243 -20 c 256
 1392 -20 1513 23 1606 81 c 257
 1559 184 l 257
 1459 130 1383 96 1263 96 c 256
 1061 96 918 204 902 497 c 257
 987 493 1066 489 1139 489 c 256
 1417 489 1597 541 1597 788 c 256
EndSplineSet
EndChar

StartChar: ampersand
Encoding: 38 38 144
Width: 1436
VWidth: 0
GlyphClass: 2
Flags: W
PickledData: "(dp1
S'org.pippin.gimp.org.kernagic'
p2
(dp3
S'lstem'
p4
I0
sS'rstem'
p5
I0
ssS'com.fontlab.hintData'
p6
(dp7
S'vhints'
p8
((dp9
S'position'
p10
I135
sS'width'
p11
I121
s(dp12
g10
I312
sg11
I105
s(dp13
g10
I917
sg11
I110
stp14
sS'hhints'
p15
((dp16
g10
I-19
sg11
I96
s(dp17
g10
I1372
sg11
I96
stp18
ssS'com.typemytype.robofont.layerData'
p19
(dp20
sS'org.robofab.postScriptHintData'
p21
(dp22
s."
HStem: -19 96 1372 96
VStem: 135 121 312 105 917 110
LayerCount: 2
Fore
SplineSet
615 1365 m 256
 754 1365 830 1290 830 1163 c 256
 830 1006 684 922 529 843 c 257
 405 986 369 1062 369 1161 c 256
 369 1281 473 1365 615 1365 c 256
117 382 m 256
 117 143 288 -20 578 -20 c 256
 767 -20 914 59 1029 169 c 257
 1217 -21 l 257
 1299 66 l 257
 1109 256 l 257
 1215 386 1288 537 1342 650 c 257
 1247 712 l 257
 1167 554 1094 432 1024 341 c 257
 605 761 l 257
 787 855 962 958 962 1165 c 256
 962 1364 819 1476 617 1476 c 256
 395 1476 241 1348 241 1160 c 256
 241 1036 286 932 420 788 c 257
 226 688 117 582 117 382 c 256
602 100 m 256
 380 100 262 209 262 393 c 256
 262 538 341 622 496 707 c 257
 946 252 l 257
 836 141 728 100 602 100 c 256
EndSplineSet
EndChar

StartChar: uni02BC
Encoding: 700 700 146
Width: 643
VWidth: 0
GlyphClass: 2
Flags: W
PickledData: "(dp1
S'org.robofab.postScriptHintData'
p2
(dp3
sS'com.typemytype.robofont.layerData'
p4
(dp5
s."
LayerCount: 2
Fore
SplineSet
133 1170 m 257
 247 1170 l 257
 247 1170 351 1535 362 1599 c 257
 201 1599 l 257
 198 1567 133 1170 133 1170 c 257
EndSplineSet
EndChar

StartChar: approxequal
Encoding: 8776 8776 147
Width: 1171
VWidth: 0
GlyphClass: 2
Flags: W
PickledData: "(dp1
S'org.pippin.gimp.org.kernagic'
p2
(dp3
S'lstem'
p4
I0
sS'rstem'
p5
I0
ssS'com.typemytype.robofont.layerData'
p6
(dp7
S'b'
(dp8
S'name'
p9
S'approxequal'
p10
sS'lib'
p11
(dp12
sS'unicodes'
p13
(tsS'width'
p14
I1136
sS'contours'
p15
(tsS'components'
p16
(tsS'anchors'
p17
(tsssS'org.robofab.postScriptHintData'
p18
(dp19
s."
LayerCount: 2
Fore
SplineSet
840 572 m 256
 778 572 697 612 600 655 c 256
 497 702 430 728 349 728 c 256
 226 728 142 648 100 529 c 257
 142 449 l 257
 183 546 261 614 348 614 c 256
 418 614 495 579 595 533 c 256
 687 490 767 459 840 459 c 256
 958 459 1032 532 1072 660 c 257
 1026 734 l 257
 995 640 922 572 840 572 c 256
840 910 m 256
 778 910 697 950 600 993 c 256
 497 1040 430 1066 349 1066 c 256
 226 1066 142 986 100 867 c 257
 142 787 l 257
 183 884 261 952 348 952 c 256
 418 952 495 917 595 871 c 256
 687 828 767 797 840 797 c 256
 958 797 1032 870 1072 998 c 257
 1026 1072 l 257
 995 978 922 910 840 910 c 256
EndSplineSet
EndChar

StartChar: asciicircum
Encoding: 94 94 150
Width: 1269
VWidth: 0
GlyphClass: 2
Flags: W
PickledData: "(dp1
S'org.pippin.gimp.org.kernagic'
p2
(dp3
S'lstem'
p4
I0
sS'rstem'
p5
I0
ssS'com.typemytype.robofont.layerData'
p6
(dp7
sS'org.robofab.postScriptHintData'
p8
(dp9
s."
LayerCount: 2
Fore
SplineSet
596 1456 m 257
 105 312 l 257
 245 312 l 257
 634 1234 l 257
 1023 312 l 257
 1165 312 l 257
 670 1456 l 257
 596 1456 l 257
EndSplineSet
EndChar

StartChar: asciitilde
Encoding: 126 126 151
Width: 1197
VWidth: 0
GlyphClass: 2
Flags: W
PickledData: "(dp1
S'org.pippin.gimp.org.kernagic'
p2
(dp3
S'lstem'
p4
I0
sS'rstem'
p5
I0
ssS'com.typemytype.robofont.layerData'
p6
(dp7
S'b'
(dp8
S'name'
p9
S'asciitilde'
p10
sS'lib'
p11
(dp12
sS'unicodes'
p13
(tsS'width'
p14
I1192
sS'contours'
p15
(tsS'components'
p16
(tsS'anchors'
p17
(tsssS'org.robofab.postScriptHintData'
p18
(dp19
s."
LayerCount: 2
Fore
SplineSet
132 496 m 257
 179 586 263 661 352 661 c 256
 423 661 501 624 610 576 c 256
 690 539 762 511 828 511 c 256
 949 511 1020 585 1068 712 c 257
 1026 793 l 257
 994 708 912 630 828 630 c 256
 767 630 686 672 589 714 c 256
 486 760 433 782 354 782 c 256
 229 782 142 696 98 585 c 257
 132 496 l 257
EndSplineSet
EndChar

StartChar: asterisk
Encoding: 42 42 152
Width: 994
VWidth: 0
GlyphClass: 2
Flags: W
PickledData: "(dp1
S'org.pippin.gimp.org.kernagic'
p2
(dp3
S'lstem'
p4
I0
sS'rstem'
p5
I0
ssS'com.typemytype.robofont.layerData'
p6
(dp7
sS'org.robofab.postScriptHintData'
p8
(dp9
s."
LayerCount: 2
Fore
SplineSet
309 600 m 257
 494 951 l 257
 694 600 l 257
 760 642 748 637 814 679 c 257
 706 815 609 947 571 999 c 257
 925 1079 l 257
 886 1217 l 257
 539 1073 l 257
 576 1465 l 257
 424 1465 l 257
 459 1073 l 257
 114 1217 l 257
 75 1079 l 257
 424 999 l 257
 188 679 l 257
 309 600 l 257
EndSplineSet
EndChar

StartChar: at
Encoding: 64 64 153
Width: 1975
VWidth: 0
GlyphClass: 2
Flags: W
PickledData: "(dp1
S'org.pippin.gimp.org.kernagic'
p2
(dp3
S'lstem'
p4
I0
sS'rstem'
p5
I0
ssS'com.typemytype.robofont.layerData'
p6
(dp7
sS'org.robofab.postScriptHintData'
p8
(dp9
s."
LayerCount: 2
Fore
SplineSet
912 312 m 256
 785 312 728 411 728 573 c 256
 728 810 861 978 1052 978 c 256
 1083 978 1153 967 1201 956 c 257
 1156 687 l 257
 1123 483 1066 312 912 312 c 256
962 -213 m 256
 1156 -213 1347 -163 1477 -74 c 257
 1438 20 l 257
 1301 -66 1132 -100 965 -100 c 256
 545 -100 294 174 294 601 c 256
 294 1041 587 1373 1024 1373 c 256
 1448 1373 1677 1107 1677 751 c 256
 1677 482 1554 323 1423 323 c 256
 1338 323 1283 393 1283 482 c 256
 1283 609 1314 780 1348 1005 c 257
 1260 1046 1135 1075 1038 1075 c 256
 751 1075 598 824 598 564 c 256
 598 356 708 205 895 205 c 256
 1039 205 1135 317 1186 442 c 257
 1213 293 1294 214 1423 214 c 256
 1597 214 1794 393 1794 744 c 256
 1794 1199 1465 1483 1030 1483 c 256
 526 1483 160 1110 160 603 c 256
 160 95 484 -213 962 -213 c 256
EndSplineSet
EndChar

StartChar: b
Encoding: 98 98 155
Width: 1212
VWidth: 0
GlyphClass: 2
Flags: W
PickledData: "(dp1
S'org.pippin.gimp.org.kernagic'
p2
(dp3
S'lstem'
p4
I0
sS'rstem'
p5
I0
ssS'org.robofab.postScriptHintData'
p6
(dp7
sS'com.typemytype.robofont.guides'
p8
(tsS'com.typemytype.robofont.layerData'
p9
(dp10
sS'com.fontlab.hintData'
p11
(dp12
S'vhints'
p13
((dp14
S'position'
p15
I193
sS'width'
p16
I125
s(dp17
g15
I193
sg16
I94
s(dp18
g15
I1018
sg16
I122
stp19
sS'hhints'
p20
((dp21
g15
I-19
sg16
I92
s(dp22
g15
I982
sg16
I92
stp23
ss."
HStem: -19 92 982 92
VStem: 193 125 193 94 1018 122
AnchorPoint: "top" 656 1082 basechar 0
LayerCount: 2
Fore
SplineSet
628 95 m 256
 488 95 381 153 316 256 c 257
 316 564 l 257
 315 817 421 991 645 991 c 256
 873 991 942 794 942 540 c 256
 942 275 850 95 628 95 c 256
664 1105 m 256
 533 1105 394 1057 317 875 c 257
 322 1098 l 257
 322 1560 l 257
 172 1540 l 257
 172 0 l 257
 289 0 l 257
 300 128 l 257
 366 44 476 -20 631 -20 c 256
 928 -20 1096 205 1096 540 c 256
 1096 874 958 1105 664 1105 c 256
EndSplineSet
EndChar

StartChar: backslash
Encoding: 92 92 156
Width: 946
VWidth: 0
GlyphClass: 2
Flags: W
PickledData: "(dp1
S'org.pippin.gimp.org.kernagic'
p2
(dp3
S'lstem'
p4
I0
sS'rstem'
p5
I0
ssS'com.typemytype.robofont.layerData'
p6
(dp7
S'b'
(dp8
S'name'
p9
S'backslash'
p10
sS'lib'
p11
(dp12
sS'unicodes'
p13
(tsS'width'
p14
I937
sS'contours'
p15
(tsS'components'
p16
(tsS'anchors'
p17
(tsssS'org.robofab.postScriptHintData'
p18
(dp19
s."
LayerCount: 2
Fore
SplineSet
662 -30 m 257
 776 -30 l 257
 221 1472 l 257
 106 1472 l 257
 662 -30 l 257
EndSplineSet
EndChar

StartChar: bar
Encoding: 124 124 157
Width: 574
VWidth: 0
GlyphClass: 2
Flags: W
PickledData: "(dp1
S'org.pippin.gimp.org.kernagic'
p2
(dp3
S'lstem'
p4
I0
sS'rstem'
p5
I0
ssS'com.typemytype.robofont.layerData'
p6
(dp7
S'b'
(dp8
S'name'
p9
S'bar'
p10
sS'lib'
p11
(dp12
sS'unicodes'
p13
(tsS'width'
p14
I681
sS'contours'
p15
(tsS'components'
p16
(tsS'anchors'
p17
(tsssS'org.robofab.postScriptHintData'
p18
(dp19
s."
LayerCount: 2
Fore
SplineSet
216 1494 m 257
 216 -292 l 257
 345 -292 l 257
 345 1494 l 257
 216 1494 l 257
EndSplineSet
EndChar

StartChar: braceleft
Encoding: 123 123 158
Width: 847
VWidth: 0
GlyphClass: 2
Flags: W
PickledData: "(dp1
S'org.pippin.gimp.org.kernagic'
p2
(dp3
S'lstem'
p4
I0
sS'rstem'
p5
I0
ssS'com.typemytype.robofont.layerData'
p6
(dp7
sS'org.robofab.postScriptHintData'
p8
(dp9
s."
LayerCount: 2
Fore
SplineSet
704 -262 m 257
 704 -154 l 257
 552 -154 536 -117 536 89 c 258
 536 330 l 258
 536 508 495 584 343 609 c 257
 495 634 536 710 536 888 c 258
 536 1131 l 258
 536 1337 553 1373 705 1374 c 257
 705 1482 l 257
 418 1482 380 1420 380 1142 c 258
 380 966 l 258
 380 747 377 671 178 670 c 257
 178 548 l 257
 379 547 380 471 380 252 c 258
 380 78 l 258
 380 -200 417 -262 704 -262 c 257
EndSplineSet
EndChar

StartChar: braceright
Encoding: 125 125 159
Width: 847
VWidth: 0
GlyphClass: 2
Flags: W
PickledData: "(dp1
S'org.pippin.gimp.org.kernagic'
p2
(dp3
S'lstem'
p4
I0
sS'rstem'
p5
I0
ssS'com.typemytype.robofont.layerData'
p6
(dp7
sS'org.robofab.postScriptHintData'
p8
(dp9
s."
LayerCount: 2
Fore
SplineSet
124 -262 m 257
 411 -262 447 -200 447 78 c 258
 447 252 l 258
 447 471 448 547 649 548 c 257
 649 670 l 257
 450 671 447 747 447 966 c 258
 447 1142 l 258
 447 1420 409 1482 122 1482 c 257
 122 1374 l 257
 274 1373 291 1337 291 1131 c 258
 291 888 l 258
 291 710 332 634 485 609 c 257
 332 584 291 508 291 330 c 258
 291 89 l 258
 291 -117 276 -154 124 -154 c 257
 124 -262 l 257
EndSplineSet
EndChar

StartChar: bracketleft
Encoding: 91 91 160
Width: 782
VWidth: 0
GlyphClass: 2
Flags: W
PickledData: "(dp1
S'org.pippin.gimp.org.kernagic'
p2
(dp3
S'lstem'
p4
I0
sS'rstem'
p5
I0
ssS'com.typemytype.robofont.layerData'
p6
(dp7
sS'org.robofab.postScriptHintData'
p8
(dp9
s."
LayerCount: 2
Fore
SplineSet
209 -249 m 257
 665 -249 l 257
 665 -140 l 257
 366 -140 l 257
 366 1382 l 257
 665 1382 l 257
 665 1493 l 257
 209 1493 l 257
 209 -249 l 257
EndSplineSet
EndChar

StartChar: bracketright
Encoding: 93 93 161
Width: 896
VWidth: 0
GlyphClass: 2
Flags: W
PickledData: "(dp1
S'org.pippin.gimp.org.kernagic'
p2
(dp3
S'lstem'
p4
I0
sS'rstem'
p5
I0
ssS'com.typemytype.robofont.layerData'
p6
(dp7
sS'org.robofab.postScriptHintData'
p8
(dp9
s."
LayerCount: 2
Fore
SplineSet
239 -249 m 257
 694 -249 l 257
 694 1493 l 257
 239 1493 l 257
 239 1382 l 257
 538 1382 l 257
 538 -140 l 257
 239 -140 l 257
 239 -249 l 257
EndSplineSet
EndChar

StartChar: breve
Encoding: 728 728 162
Width: 858
VWidth: 0
GlyphClass: 4
Flags: W
PickledData: "(dp1
S'org.robofab.postScriptHintData'
p2
(dp3
sS'com.typemytype.robofont.layerData'
p4
(dp5
s."
AnchorPoint: "top" 422 1062 mark 0
LayerCount: 2
Fore
SplineSet
417 1279 m 256
 545 1279 650 1352 650 1515 c 257
 555 1515 l 257
 555 1416 480 1374 417 1374 c 256
 355 1374 285 1416 285 1515 c 257
 188 1515 l 257
 188 1351 291 1279 417 1279 c 256
EndSplineSet
EndChar

StartChar: uni0311
Encoding: 785 785 163
Width: 777
VWidth: 0
GlyphClass: 4
Flags: W
PickledData: "(dp1
S'org.robofab.postScriptHintData'
p2
(dp3
sS'com.typemytype.robofont.layerData'
p4
(dp5
s."
AnchorPoint: "top" 402 1062 mark 0
LayerCount: 2
Fore
SplineSet
167 1279 m 257
 265 1279 l 257
 265 1378 334 1421 397 1421 c 256
 460 1421 535 1378 535 1279 c 257
 630 1279 l 257
 630 1442 524 1515 397 1515 c 256
 270 1515 167 1443 167 1279 c 257
EndSplineSet
EndChar

StartChar: brokenbar
Encoding: 166 166 164
Width: 534
VWidth: 0
GlyphClass: 2
Flags: W
PickledData: "(dp1
S'org.pippin.gimp.org.kernagic'
p2
(dp3
S'lstem'
p4
I0
sS'rstem'
p5
I0
ssS'com.typemytype.robofont.layerData'
p6
(dp7
S'b'
(dp8
S'name'
p9
S'brokenbar'
p10
sS'lib'
p11
(dp12
sS'unicodes'
p13
(tsS'width'
p14
I653
sS'contours'
p15
(tsS'components'
p16
(tsS'anchors'
p17
(tsssS'org.robofab.postScriptHintData'
p18
(dp19
s."
LayerCount: 2
Fore
SplineSet
212 1557 m 257
 212 817 l 257
 324 817 l 257
 324 1557 l 257
 212 1557 l 257
212 551 m 257
 212 -192 l 257
 324 -192 l 257
 324 551 l 257
 212 551 l 257
EndSplineSet
EndChar

StartChar: bullet
Encoding: 8226 8226 165
Width: 887
VWidth: 0
GlyphClass: 2
Flags: W
PickledData: "(dp1
S'org.pippin.gimp.org.kernagic'
p2
(dp3
S'lstem'
p4
I0
sS'rstem'
p5
I0
ssS'com.typemytype.robofont.layerData'
p6
(dp7
S'b'
(dp8
S'name'
p9
S'bullet'
p10
sS'lib'
p11
(dp12
sS'unicodes'
p13
(tsS'width'
p14
I908
sS'contours'
p15
(tsS'components'
p16
(tsS'anchors'
p17
(tsssS'org.robofab.postScriptHintData'
p18
(dp19
s."
LayerCount: 2
Fore
SplineSet
432 423 m 256
 593 423 747 540 747 752 c 256
 747 964 598 1079 438 1079 c 256
 277 1079 124 961 124 748 c 256
 124 537 273 423 432 423 c 256
EndSplineSet
EndChar

StartChar: c
Encoding: 99 99 166
Width: 1075
VWidth: 0
GlyphClass: 2
Flags: W
PickledData: "(dp1
S'org.pippin.gimp.org.kernagic'
p2
(dp3
S'lstem'
p4
I0
sS'rstem'
p5
I696
ssS'org.robofab.postScriptHintData'
p6
(dp7
sS'com.typemytype.robofont.guides'
p8
((dp9
S'y'
I417
sS'x'
I962
sS'magnetic'
p10
I5
sS'angle'
p11
F90
sS'isGlobal'
p12
I00
s(dp13
S'y'
I1020
sS'x'
I565
sg10
I5
sg11
F90
sg12
I00
s(dp14
S'y'
I994
sS'x'
I572
sg10
I5
sg11
F90
sg12
I00
stp15
sS'com.typemytype.robofont.layerData'
p16
(dp17
sS'com.fontlab.hintData'
p18
(dp19
S'vhints'
p20
((dp21
S'position'
p22
I128
sS'width'
p23
I120
stp24
sS'hhints'
p25
((dp26
g22
I-19
sg23
I92
s(dp27
g22
I982
sg23
I92
stp28
ss."
HStem: -19 92 982 92
VStem: 128 120
AnchorPoint: "top" 617 1083 basechar 0
AnchorPoint: "bot" 601 1 basechar 0
LayerCount: 2
Fore
SplineSet
878 263 m 257
 829 164 747 94 605 94 c 256
 384 94 271 264 271 543 c 256
 271 821 384 991 605 991 c 256
 747 991 830 919 879 820 c 257
 893 820 l 257
 985 872 l 257
 943 986 829 1105 599 1105 c 256
 304 1105 117 888 117 543 c 256
 117 198 304 -20 599 -20 c 256
 829 -20 944 99 985 214 c 257
 893 263 l 257
 878 263 l 257
EndSplineSet
EndChar

StartChar: caron
Encoding: 711 711 168
Width: 883
VWidth: 0
GlyphClass: 4
Flags: W
PickledData: "(dp1
S'org.robofab.postScriptHintData'
p2
(dp3
sS'com.typemytype.robofont.layerData'
p4
(dp5
s."
AnchorPoint: "top" 437 1082 mark 0
LayerCount: 2
Fore
SplineSet
343 1227 m 257
 507 1227 l 257
 699 1562 l 257
 572 1562 l 257
 425 1328 l 257
 278 1562 l 257
 150 1562 l 257
 343 1227 l 257
EndSplineSet
EndChar

StartChar: caron.alt
Encoding: 65537 -1 169
Width: 766
VWidth: 0
GlyphClass: 4
Flags: W
PickledData: "(dp1
S'org.robofab.postScriptHintData'
p2
(dp3
sS'com.typemytype.robofont.layerData'
p4
(dp5
s."
AnchorPoint: "caron.alt" 267 1082 mark 0
LayerCount: 2
Fore
SplineSet
494 1169 m 257
 609 1169 l 257
 692 1538 l 257
 536 1538 l 257
 494 1169 l 257
EndSplineSet
EndChar

StartChar: cedilla
Encoding: 184 184 174
Width: 666
VWidth: 0
GlyphClass: 4
Flags: W
PickledData: "(dp1
S'org.robofab.postScriptHintData'
p2
(dp3
sS'com.typemytype.robofont.layerData'
p4
(dp5
s."
AnchorPoint: "bot" 372 8 mark 0
LayerCount: 2
Fore
SplineSet
484 -198 m 256
 484 -279 410 -319 327 -319 c 256
 286 -319 242 -310 202 -290 c 257
 174 -365 l 257
 222 -387 274 -398 329 -398 c 256
 473 -398 580 -322 580 -202 c 256
 580 -94 503 -41 410 -41 c 256
 378 -41 343 -47 309 -60 c 257
 309 -107 l 257
 332 -103 352 -101 370 -101 c 256
 462 -101 484 -153 484 -198 c 256
EndSplineSet
EndChar

StartChar: cent
Encoding: 162 162 175
Width: 1061
VWidth: 0
GlyphClass: 2
Flags: W
PickledData: "(dp1
S'org.pippin.gimp.org.kernagic'
p2
(dp3
S'lstem'
p4
I0
sS'rstem'
p5
I0
ssS'com.typemytype.robofont.layerData'
p6
(dp7
sS'org.robofab.postScriptHintData'
p8
(dp9
s."
LayerCount: 2
Fore
SplineSet
539 29 m 257
 539 -305 l 257
 646 -305 l 257
 662 29 l 257
 539 29 l 257
548 1387 m 257
 537 1062 l 257
 652 1062 l 257
 652 1387 l 257
 548 1387 l 257
EndSplineSet
Refer: 166 99 N 1 0 0 1 0 0 2
EndChar

StartChar: circumflex
Encoding: 710 710 176
Width: 874
VWidth: 0
GlyphClass: 4
Flags: W
PickledData: "(dp1
S'org.robofab.postScriptHintData'
p2
(dp3
sS'com.typemytype.robofont.layerData'
p4
(dp5
s."
AnchorPoint: "top" 431 1082 mark 0
LayerCount: 2
Fore
SplineSet
149 1237 m 257
 277 1237 l 257
 424 1471 l 257
 571 1237 l 257
 699 1237 l 257
 506 1571 l 257
 342 1571 l 257
 149 1237 l 257
EndSplineSet
EndChar

StartChar: colon
Encoding: 58 58 177
Width: 615
VWidth: 0
GlyphClass: 2
Flags: W
PickledData: "(dp1
S'org.pippin.gimp.org.kernagic'
p2
(dp3
S'lstem'
p4
I0
sS'rstem'
p5
I0
ssS'com.typemytype.robofont.layerData'
p6
(dp7
S'b'
(dp8
S'name'
p9
S'colon'
p10
sS'lib'
p11
(dp12
sS'unicodes'
p13
(tsS'width'
p14
I653
sS'contours'
p15
(tsS'components'
p16
(tsS'anchors'
p17
(tsssS'org.robofab.postScriptHintData'
p18
(dp19
s."
LayerCount: 2
Fore
SplineSet
301 -12 m 256
 380 -12 410 45 410 101 c 256
 410 156 380 215 301 215 c 256
 221 215 189 156 189 101 c 256
 189 45 223 -12 301 -12 c 256
301 850 m 256
 380 850 410 907 410 963 c 256
 410 1018 380 1077 301 1077 c 256
 221 1077 189 1018 189 963 c 256
 189 907 223 850 301 850 c 256
EndSplineSet
EndChar

StartChar: comma
Encoding: 44 44 178
Width: 589
VWidth: 0
GlyphClass: 2
Flags: W
PickledData: "(dp1
S'org.pippin.gimp.org.kernagic'
p2
(dp3
S'lstem'
p4
I0
sS'rstem'
p5
I0
ssS'com.typemytype.robofont.layerData'
p6
(dp7
sS'org.robofab.postScriptHintData'
p8
(dp9
s."
LayerCount: 2
Fore
SplineSet
186 -299 m 257
 271 -299 l 257
 271 -299 380 145 380 155 c 258
 380 227 l 257
 220 227 l 257
 220 202 186 -299 186 -299 c 257
EndSplineSet
EndChar

StartChar: uni0326
Encoding: 806 806 179
Width: 608
VWidth: 0
GlyphClass: 4
Flags: W
PickledData: "(dp1
S'org.robofab.postScriptHintData'
p2
(dp3
s."
AnchorPoint: "bot" 324 0 mark 0
LayerCount: 2
Fore
SplineSet
211 -515 m 257
 308 -515 l 257
 308 -515 397 -195 395 -143 c 257
 248 -143 l 257
 248 -228 211 -515 211 -515 c 257
EndSplineSet
EndChar

StartChar: uni0312
Encoding: 786 786 180
Width: 600
VWidth: 0
GlyphClass: 4
Flags: W
PickledData: "(dp1
S'org.robofab.postScriptHintData'
p2
(dp3
s."
AnchorPoint: "top" 298 1062 mark 0
LayerCount: 2
Fore
SplineSet
211 1308 m 257
 208 1285 l 257
 379 1285 l 257
 379 1370 403 1782 403 1782 c 257
 308 1782 l 257
 308 1782 211 1350 211 1308 c 257
EndSplineSet
EndChar

StartChar: copyright
Encoding: 169 169 181
Width: 1758
VWidth: 0
GlyphClass: 2
Flags: W
PickledData: "(dp1
S'org.pippin.gimp.org.kernagic'
p2
(dp3
S'lstem'
p4
I0
sS'rstem'
p5
I0
ssS'com.typemytype.robofont.layerData'
p6
(dp7
sS'org.robofab.postScriptHintData'
p8
(dp9
s."
LayerCount: 2
Fore
SplineSet
799 -26 m 256
 1182 -26 1575 227 1575 734 c 256
 1575 1243 1181 1496 799 1496 c 256
 420 1496 36 1243 36 734 c 256
 36 227 420 -26 799 -26 c 256
799 54 m 256
 464 54 130 282 130 734 c 256
 130 1187 464 1414 799 1414 c 256
 1136 1414 1473 1187 1473 734 c 256
 1473 283 1136 54 799 54 c 256
824 232 m 256
 922 232 1020 259 1108 316 c 257
 1076 396 l 257
 987 342 908 324 826 324 c 256
 621 324 454 482 454 738 c 256
 454 973 620 1139 818 1139 c 256
 892 1139 988 1113 1063 1057 c 257
 1105 1141 l 257
 1014 1202 915 1231 815 1231 c 256
 556 1231 336 1019 336 733 c 256
 336 438 562 232 824 232 c 256
EndSplineSet
EndChar

StartChar: currency
Encoding: 164 164 182
Width: 1225
VWidth: 0
GlyphClass: 2
Flags: W
PickledData: "(dp1
S'org.pippin.gimp.org.kernagic'
p2
(dp3
S'lstem'
p4
I0
sS'rstem'
p5
I0
ssS'com.typemytype.robofont.layerData'
p6
(dp7
S'b'
(dp8
S'name'
p9
S'currency'
p10
sS'lib'
p11
(dp12
sS'unicodes'
p13
(tsS'width'
p14
I1164
sS'contours'
p15
(tsS'components'
p16
(tsS'anchors'
p17
(tsssS'org.robofab.postScriptHintData'
p18
(dp19
s."
LayerCount: 2
Fore
SplineSet
919 716 m 256
 919 540 802 388 605 388 c 256
 411 388 292 539 292 716 c 256
 292 893 411 1045 605 1045 c 256
 801 1045 919 892 919 716 c 256
868 1032 m 257
 797 1093 705 1128 605 1128 c 256
 506 1128 415 1095 341 1033 c 257
 161 1206 l 257
 103 1147 l 257
 286 968 l 257
 230 895 203 808 203 716 c 256
 203 623 230 538 286 464 c 257
 104 288 l 257
 161 227 l 257
 343 401 l 257
 415 339 504 306 605 306 c 256
 706 306 796 339 868 400 c 257
 1050 226 l 257
 1105 287 l 257
 926 464 l 257
 980 535 1008 621 1008 716 c 256
 1008 806 981 891 925 968 c 257
 1106 1144 l 257
 1050 1206 l 257
 868 1032 l 257
EndSplineSet
EndChar

StartChar: d
Encoding: 100 100 183
Width: 1204
VWidth: 0
GlyphClass: 2
Flags: W
PickledData: "(dp1
S'org.pippin.gimp.org.kernagic'
p2
(dp3
S'lstem'
p4
I0
sS'rstem'
p5
I0
ssS'com.fontlab.hintData'
p6
(dp7
S'vhints'
p8
((dp9
S'position'
p10
I114
sS'width'
p11
I166
s(dp12
g10
I907
sg11
I161
s(dp13
g10
I930
sg11
I138
stp14
sS'hhints'
p15
((dp16
g10
I-19
sg11
I127
s(dp17
g10
I953
sg11
I127
stp18
ssS'com.typemytype.robofont.layerData'
p19
(dp20
sS'org.robofab.postScriptHintData'
p21
(dp22
s."
HStem: -19 127 953 127
VStem: 114 166 907 161 930 138
AnchorPoint: "top" 552 1082 basechar 0
AnchorPoint: "caron.alt" 1121 1186 basechar 0
LayerCount: 2
Fore
SplineSet
594 95 m 256
 378 95 271 268 271 548 c 256
 271 819 380 991 596 991 c 256
 724 991 836 938 896 836 c 257
 896 233 l 257
 832 141 723 95 594 95 c 256
586 -20 m 256
 700 -20 829 26 909 122 c 257
 919 0 l 257
 1046 0 l 257
 1046 1560 l 257
 891 1540 l 257
 891 1159 l 257
 896 978 l 257
 832 1053 732 1103 598 1103 c 258
 592 1103 l 257
 588 1103 l 258
 295 1103 117 884 117 546 c 256
 117 206 284 -20 586 -20 c 256
EndSplineSet
EndChar

StartChar: dagger
Encoding: 8224 8224 184
Width: 1030
VWidth: 0
GlyphClass: 2
Flags: W
PickledData: "(dp1
S'org.pippin.gimp.org.kernagic'
p2
(dp3
S'lstem'
p4
I0
sS'rstem'
p5
I0
ssS'com.typemytype.robofont.layerData'
p6
(dp7
S'b'
(dp8
S'name'
p9
S'dagger'
p10
sS'lib'
p11
(dp12
sS'unicodes'
p13
(tsS'width'
p14
I1050
sS'contours'
p15
(tsS'components'
p16
(tsS'anchors'
p17
(tsssS'org.robofab.postScriptHintData'
p18
(dp19
s."
LayerCount: 2
Fore
SplineSet
460 1486 m 257
 460 1098 l 257
 174 1098 l 257
 174 1010 l 257
 460 1010 l 257
 460 120 l 257
 557 120 l 257
 557 1010 l 257
 844 1010 l 257
 844 1098 l 257
 553 1098 l 257
 553 1486 l 257
 460 1486 l 257
EndSplineSet
EndChar

StartChar: daggerdbl
Encoding: 8225 8225 185
Width: 1029
VWidth: 0
GlyphClass: 2
Flags: W
PickledData: "(dp1
S'org.pippin.gimp.org.kernagic'
p2
(dp3
S'lstem'
p4
I0
sS'rstem'
p5
I0
ssS'com.typemytype.robofont.layerData'
p6
(dp7
S'b'
(dp8
S'name'
p9
S'daggerdbl'
p10
sS'lib'
p11
(dp12
sS'unicodes'
p13
(tsS'width'
p14
I1022
sS'contours'
p15
(tsS'components'
p16
(tsS'anchors'
p17
(tsssS'org.robofab.postScriptHintData'
p18
(dp19
s."
LayerCount: 2
Fore
SplineSet
456 1471 m 257
 456 1082 l 257
 177 1082 l 257
 177 995 l 257
 456 995 l 257
 456 547 l 257
 177 547 l 257
 177 463 l 257
 456 463 l 257
 456 94 l 257
 554 94 l 257
 554 463 l 257
 828 463 l 257
 828 547 l 257
 554 547 l 257
 554 995 l 257
 829 995 l 257
 829 1082 l 257
 550 1082 l 257
 550 1471 l 257
 456 1471 l 257
EndSplineSet
EndChar

StartChar: uni030F
Encoding: 783 783 186
Width: 834
VWidth: 0
GlyphClass: 4
Flags: W
PickledData: "(dp1
S'org.robofab.postScriptHintData'
p2
(dp3
sS'com.typemytype.robofont.layerData'
p4
(dp5
s."
AnchorPoint: "top" 459 1062 mark 0
LayerCount: 2
Fore
SplineSet
527 1244 m 257
 623 1244 l 257
 497 1581 l 257
 358 1581 l 257
 527 1244 l 257
276 1244 m 257
 370 1244 l 257
 220 1581 l 257
 65 1581 l 257
 276 1244 l 257
EndSplineSet
EndChar

StartChar: degree
Encoding: 176 176 189
Width: 874
VWidth: 0
GlyphClass: 2
Flags: W
PickledData: "(dp1
S'org.pippin.gimp.org.kernagic'
p2
(dp3
S'lstem'
p4
I0
sS'rstem'
p5
I0
ssS'com.typemytype.robofont.layerData'
p6
(dp7
sS'org.robofab.postScriptHintData'
p8
(dp9
s."
LayerCount: 2
Fore
SplineSet
429 897 m 256
 588 897 729 1020 729 1190 c 256
 729 1364 585 1480 429 1480 c 256
 277 1480 131 1364 131 1190 c 256
 131 1013 277 897 429 897 c 256
429 986 m 256
 318 986 231 1069 231 1189 c 256
 231 1308 321 1391 430 1391 c 256
 541 1391 629 1308 629 1189 c 256
 629 1070 541 986 429 986 c 256
EndSplineSet
EndChar

StartChar: dieresis
Encoding: 168 168 190
Width: 891
VWidth: 0
GlyphClass: 4
Flags: W
PickledData: "(dp1
S'org.robofab.postScriptHintData'
p2
(dp3
sS'com.typemytype.robofont.layerData'
p4
(dp5
s."
AnchorPoint: "top" 444 1082 mark 0
LayerCount: 2
Fore
SplineSet
640 1308 m 256
 707 1308 733 1352 733 1403 c 256
 733 1454 707 1499 640 1499 c 256
 571 1499 546 1454 546 1403 c 256
 546 1352 573 1308 640 1308 c 256
227 1308 m 256
 295 1308 320 1352 320 1403 c 256
 320 1454 295 1499 227 1499 c 256
 158 1499 134 1454 134 1403 c 256
 134 1352 160 1308 227 1308 c 256
EndSplineSet
EndChar

StartChar: divide
Encoding: 247 247 191
Width: 1135
VWidth: 0
GlyphClass: 2
Flags: W
PickledData: "(dp1
S'org.pippin.gimp.org.kernagic'
p2
(dp3
S'lstem'
p4
I0
sS'rstem'
p5
I0
ssS'com.typemytype.robofont.layerData'
p6
(dp7
sS'org.robofab.postScriptHintData'
p8
(dp9
s."
LayerCount: 2
Fore
SplineSet
475 1084 m 257
 475 893 l 257
 656 893 l 257
 656 1084 l 257
 475 1084 l 257
475 228 m 257
 475 34 l 257
 654 34 l 257
 654 228 l 257
 475 228 l 257
95 638 m 257
 95 509 l 257
 1033 509 l 257
 1033 638 l 257
 95 638 l 257
EndSplineSet
EndChar

StartChar: dollar
Encoding: 36 36 192
Width: 1215
VWidth: 0
GlyphClass: 2
Flags: W
PickledData: "(dp1
S'org.pippin.gimp.org.kernagic'
p2
(dp3
S'lstem'
p4
I0
sS'rstem'
p5
I0
ssS'com.typemytype.robofont.layerData'
p6
(dp7
S'b'
(dp8
S'name'
p9
S'dollar'
p10
sS'lib'
p11
(dp12
sS'unicodes'
p13
(tsS'width'
p14
I1221
sS'contours'
p15
(tsS'components'
p16
(tsS'anchors'
p17
(tsssS'org.robofab.postScriptHintData'
p18
(dp19
s."
LayerCount: 2
Fore
SplineSet
555 34 m 257
 555 -305 l 257
 661 -305 l 257
 676 34 l 257
 555 34 l 257
573 1754 m 257
 559 1430 l 257
 684 1430 l 257
 684 1754 l 257
 573 1754 l 257
EndSplineSet
Refer: 94 83 N 1 0 0 1 0 0 2
EndChar

StartChar: dotaccent
Encoding: 729 729 193
Width: 405
VWidth: 0
GlyphClass: 4
Flags: W
PickledData: "(dp1
S'org.robofab.postScriptHintData'
p2
(dp3
sS'com.typemytype.robofont.layerData'
p4
(dp5
s."
AnchorPoint: "top" 200 1082 mark 0
LayerCount: 2
Fore
SplineSet
315 1423 m 256
 315 1492 275 1533 201 1533 c 256
 127 1533 87 1492 87 1423 c 256
 87 1353 127 1311 201 1311 c 256
 275 1311 315 1353 315 1423 c 256
EndSplineSet
EndChar

StartChar: dotlessi
Encoding: 305 305 194
Width: 507
VWidth: 0
GlyphClass: 2
Flags: W
PickledData: "(dp1
S'org.pippin.gimp.org.kernagic'
p2
(dp3
S'lstem'
p4
I0
sS'rstem'
p5
I0
ssS'com.typemytype.robofont.layerData'
p6
(dp7
sS'org.robofab.postScriptHintData'
p8
(dp9
s."
AnchorPoint: "top" 268 1082 basechar 0
LayerCount: 2
Fore
SplineSet
188 1082 m 257
 188 0 l 257
 338 0 l 257
 338 1082 l 257
 188 1082 l 257
EndSplineSet
EndChar

StartChar: uni0237
Encoding: 567 567 195
Width: 565
VWidth: 0
GlyphClass: 2
Flags: W
PickledData: "(dp1
S'org.pippin.gimp.org.kernagic'
p2
(dp3
S'lstem'
p4
I0
sS'rstem'
p5
I0
ssS'com.fontlab.hintData'
p6
(dp7
S'vhints'
p8
((dp9
S'position'
p10
I111
sS'width'
p11
I142
stp12
sS'hhints'
p13
((dp14
g10
I-479
sg11
I112
stp15
ssS'com.typemytype.robofont.layerData'
p16
(dp17
sS'org.robofab.postScriptHintData'
p18
(dp19
s."
HStem: -479 112
VStem: 111 142
AnchorPoint: "top" 318 1081 basechar 0
LayerCount: 2
Fore
SplineSet
241 1082 m 257
 241 28 l 258
 241 -165 238 -208 88 -232 c 257
 31 -242 l 257
 45 -364 l 257
 104 -358 l 258
 307 -337 390 -264 390 -12 c 258
 390 1082 l 257
 241 1082 l 257
EndSplineSet
EndChar

StartChar: e
Encoding: 101 101 196
Width: 1127
VWidth: 0
GlyphClass: 2
Flags: W
PickledData: "(dp1
S'org.pippin.gimp.org.kernagic'
p2
(dp3
S'lstem'
p4
I0
sS'rstem'
p5
I747
ssS'com.fontlab.hintData'
p6
(dp7
S'hhints'
p8
((dp9
S'position'
p10
I-19
sS'width'
p11
I94
s(dp12
g10
I982
sg11
I92
stp13
ssS'com.typemytype.robofont.layerData'
p14
(dp15
sS'org.robofab.postScriptHintData'
p16
(dp17
s."
HStem: -19 94 982 92
AnchorPoint: "top" 609 1082 basechar 0
AnchorPoint: "bot" 616 1 basechar 0
LayerCount: 2
Fore
SplineSet
273 623 m 257
 293 845 422 990 612 990 c 256
 800 990 886 857 890 623 c 257
 273 623 l 257
1009 522 m 257
 1009 526 1017 596 1017 623 c 256
 1017 923 861 1105 607 1105 c 256
 342 1105 117 900 117 538 c 256
 117 193 337 -20 623 -20 c 256
 773 -20 895 23 987 82 c 257
 950 185 l 257
 938 185 l 257
 846 133 764 95 642 95 c 256
 439 95 283 222 269 522 c 257
 1009 522 l 257
EndSplineSet
EndChar

StartChar: eight
Encoding: 56 56 204
Width: 1238
VWidth: 0
GlyphClass: 2
Flags: W
PickledData: "(dp1
S'org.pippin.gimp.org.kernagic'
p2
(dp3
S'lstem'
p4
I0
sS'rstem'
p5
I0
ssS'com.typemytype.robofont.layerData'
p6
(dp7
sS'org.robofab.postScriptHintData'
p8
(dp9
s."
LayerCount: 2
Fore
SplineSet
619 813 m 257
 427 855 329 959 329 1122 c 256
 329 1271 445 1360 619 1360 c 256
 793 1360 906 1271 906 1122 c 256
 906 959 812 855 619 813 c 257
619 100 m 256
 403 100 290 195 290 375 c 256
 290 558 432 659 619 700 c 257
 806 659 944 551 944 376 c 256
 944 188 841 100 619 100 c 256
619 -20 m 256
 876 -20 1085 103 1085 361 c 256
 1085 552 964 704 773 763 c 257
 940 821 1053 933 1053 1117 c 256
 1053 1346 876 1476 620 1476 c 256
 363 1476 183 1346 183 1117 c 256
 183 934 306 811 466 761 c 257
 266 693 151 568 151 360 c 256
 151 103 363 -20 619 -20 c 256
EndSplineSet
EndChar

StartChar: emdash
Encoding: 8212 8212 207
Width: 2162
VWidth: 0
GlyphClass: 2
Flags: W
PickledData: "(dp1
S'org.robofab.postScriptHintData'
p2
(dp3
sS'com.typemytype.robofont.layerData'
p4
(dp5
s."
LayerCount: 2
Fore
SplineSet
60 533 m 257
 2102 533 l 257
 2102 655 l 257
 60 655 l 257
 60 533 l 257
EndSplineSet
EndChar

StartChar: endash
Encoding: 8211 8211 208
Width: 1332
VWidth: 0
GlyphClass: 2
Flags: W
PickledData: "(dp1
S'org.pippin.gimp.org.kernagic'
p2
(dp3
S'lstem'
p4
I0
sS'rstem'
p5
I0
ssS'com.typemytype.robofont.layerData'
p6
(dp7
sS'org.robofab.postScriptHintData'
p8
(dp9
s."
LayerCount: 2
Fore
SplineSet
87 541 m 257
 1246 541 l 257
 1246 656 l 257
 87 656 l 257
 87 541 l 257
EndSplineSet
EndChar

StartChar: eng
Encoding: 331 331 209
Width: 1187
VWidth: 0
GlyphClass: 2
Flags: W
PickledData: "(dp1
S'org.robofab.postScriptHintData'
p2
(dp3
sS'com.typemytype.robofont.layerData'
p4
(dp5
s."
LayerCount: 2
Fore
SplineSet
884 154 m 257
 884 -8 l 257
 883 -230 846 -301 472 -301 c 257
 475 -420 l 257
 911 -420 1034 -323 1034 -12 c 258
 1034 154 l 257
 884 154 l 257
EndSplineSet
Refer: 277 110 N 1 0 0 1 0 0 2
EndChar

StartChar: equal
Encoding: 61 61 211
Width: 1052
VWidth: 0
GlyphClass: 2
Flags: W
PickledData: "(dp1
S'org.pippin.gimp.org.kernagic'
p2
(dp3
S'lstem'
p4
I0
sS'rstem'
p5
I0
ssS'com.typemytype.robofont.layerData'
p6
(dp7
S'b'
(dp8
S'name'
p9
S'equal'
p10
sS'lib'
p11
(dp12
sS'unicodes'
p13
(tsS'width'
p14
I1050
sS'contours'
p15
(tsS'components'
p16
(tsS'anchors'
p17
(tsssS'org.robofab.postScriptHintData'
p18
(dp19
s."
LayerCount: 2
Fore
SplineSet
131 556 m 257
 131 424 l 257
 928 424 l 257
 928 556 l 257
 131 556 l 257
131 939 m 257
 131 807 l 257
 928 807 l 257
 928 939 l 257
 131 939 l 257
EndSplineSet
EndChar

StartChar: estimated
Encoding: 8494 8494 212
Width: 1098
VWidth: 0
GlyphClass: 2
Flags: W
PickledData: "(dp1
S'org.robofab.postScriptHintData'
p2
(dp3
sS'com.typemytype.robofont.layerData'
p4
(dp5
S'b'
(dp6
S'name'
p7
S'estimated'
p8
sS'lib'
p9
(dp10
sS'unicodes'
p11
(tsS'width'
p12
I1223
sS'contours'
p13
(tsS'components'
p14
(tsS'anchors'
p15
(tsss."
LayerCount: 2
Fore
SplineSet
967 570 m 257
 313 570 l 257
 327 819 470 989 635 989 c 256
 833 989 967 793 967 570 c 257
104 513 m 256
 104 209 282 -20 646 -20 c 256
 843 -20 971 66 1066 178 c 257
 1016 226 l 257
 923 127 817 50 646 50 c 256
 428 50 312 232 311 494 c 257
 1073 494 l 257
 1073 825 933 1046 629 1046 c 256
 322 1046 104 817 104 513 c 256
EndSplineSet
EndChar

StartChar: eth
Encoding: 240 240 213
Width: 1250
VWidth: 0
GlyphClass: 2
Flags: W
PickledData: "(dp1
S'org.pippin.gimp.org.kernagic'
p2
(dp3
S'lstem'
p4
I0
sS'rstem'
p5
I0
ssS'com.typemytype.robofont.layerData'
p6
(dp7
sS'org.robofab.postScriptHintData'
p8
(dp9
s."
LayerCount: 2
Fore
SplineSet
970 499 m 256
 970 254 851 94 618 94 c 256
 379 94 267 290 267 487 c 256
 267 700 394 863 612 863 c 256
 843 863 970 683 970 499 c 256
247 1595 m 257
 466 1390 l 257
 234 1300 l 257
 279 1201 l 257
 537 1302 l 257
 741 1102 843 958 896 850 c 257
 838 899 765 977 601 977 c 256
 322 977 120 781 120 489 c 256
 120 224 285 -22 612 -22 c 256
 948 -22 1105 206 1105 493 c 256
 1105 629 1072 772 1023 872 c 256
 958 1000 859 1133 655 1352 c 257
 916 1451 l 257
 871 1547 l 257
 577 1434 l 257
 415 1595 l 257
 247 1595 l 257
EndSplineSet
EndChar

StartChar: exclam
Encoding: 33 33 214
Width: 671
VWidth: 0
GlyphClass: 2
Flags: W
PickledData: "(dp1
S'org.pippin.gimp.org.kernagic'
p2
(dp3
S'lstem'
p4
I0
sS'rstem'
p5
I0
ssS'com.typemytype.robofont.layerData'
p6
(dp7
sS'org.robofab.postScriptHintData'
p8
(dp9
s."
LayerCount: 2
Fore
SplineSet
328 -14 m 256
 407 -14 438 42 438 98 c 256
 438 151 407 209 328 209 c 256
 249 209 219 151 219 98 c 256
 219 44 249 -14 328 -14 c 256
297 424 m 257
 355 424 l 257
 406 1353 l 257
 406 1462 l 257
 240 1462 l 257
 240 1353 l 257
 297 424 l 257
EndSplineSet
EndChar

StartChar: f
Encoding: 102 102 216
Width: 748
VWidth: 0
GlyphClass: 2
Flags: W
PickledData: "(dp1
S'org.pippin.gimp.org.kernagic'
p2
(dp3
S'lstem'
p4
I182
sS'rstem'
p5
I417
ssS'com.fontlab.hintData'
p6
(dp7
S'vhints'
p8
((dp9
S'position'
p10
I269
sS'width'
p11
I166
stp12
sS'hhints'
p13
((dp14
g10
I952
sg11
I89
s(dp15
g10
I1358
sg11
I122
stp16
ssS'com.typemytype.robofont.layerData'
p17
(dp18
sS'org.robofab.postScriptHintData'
p19
(dp20
s."
HStem: 952 89 1358 122
VStem: 269 166
AnchorPoint: "top" 394 1456 basechar 0
LayerCount: 2
Fore
SplineSet
713 1500 m 257
 713 1500 640 1516 566 1516 c 256
 374 1516 271 1452 271 1164 c 258
 271 1079 l 257
 76 1066 l 257
 71 990 l 257
 271 990 l 257
 271 0 l 257
 420 0 l 257
 420 990 l 257
 691 990 l 257
 691 1082 l 257
 420 1082 l 257
 420 1164 l 258
 420 1365 460 1404 598 1404 c 256
 636 1404 702 1397 702 1397 c 257
 713 1500 l 257
EndSplineSet
EndChar

StartChar: five
Encoding: 53 53 217
Width: 1238
VWidth: 0
GlyphClass: 2
Flags: W
PickledData: "(dp1
S'org.pippin.gimp.org.kernagic'
p2
(dp3
S'lstem'
p4
I0
sS'rstem'
p5
I0
ssS'com.typemytype.robofont.layerData'
p6
(dp7
sS'org.robofab.postScriptHintData'
p8
(dp9
s."
LayerCount: 2
Fore
SplineSet
654 810 m 256
 856 810 953 640 953 466 c 256
 953 274 829 110 605 110 c 256
 465 110 366 160 276 262 c 257
 262 262 l 257
 177 174 l 257
 251 80 405 -20 605 -20 c 256
 934 -20 1114 209 1114 470 c 256
 1114 703 965 928 672 928 c 256
 555 928 470 889 394 824 c 257
 440 1334 l 257
 1011 1334 l 257
 1027 1456 l 257
 297 1456 l 257
 252 705 l 257
 380 687 l 257
 444 765 547 810 654 810 c 256
EndSplineSet
EndChar

StartChar: florin
Encoding: 402 402 219
Width: 994
VWidth: 0
GlyphClass: 2
Flags: W
PickledData: "(dp1
S'org.robofab.postScriptHintData'
p2
(dp3
s."
LayerCount: 2
Fore
SplineSet
545 1225 m 258
 506 1028 l 257
 344 1028 l 257
 329 950 l 257
 493 950 l 257
 298 129 l 258
 263 -20 277 -165 105 -165 c 256
 79 -165 49 -162 15 -155 c 257
 -1 -232 l 257
 32 -241 63 -245 94 -245 c 256
 258 -245 387 -118 444 128 c 258
 638 950 l 257
 860 950 l 257
 875 1028 l 257
 655 1028 l 257
 694 1234 l 258
 716 1347 745 1439 843 1439 c 256
 902 1439 933 1390 933 1285 c 257
 1052 1285 l 257
 1052 1469 952 1518 837 1518 c 256
 662 1518 579 1397 545 1225 c 258
EndSplineSet
EndChar

StartChar: foundryicon
Encoding: 65539 -1 220
Width: 1347
VWidth: 0
GlyphClass: 2
Flags: W
PickledData: "(dp1
S'org.robofab.postScriptHintData'
p2
(dp3
s."
LayerCount: 2
Fore
SplineSet
280 2 m 257
 669 278 l 257
 1066 2 l 257
 922 461 l 257
 1313 755 l 257
 828 755 l 257
 669 1215 l 257
 519 755 l 257
 34 755 l 257
 423 461 l 257
 280 2 l 257
485 405 m 257
 485 672 l 257
 591 672 l 257
 761 523 l 257
 761 672 l 257
 867 672 l 257
 867 405 l 257
 761 405 l 257
 591 552 l 257
 591 405 l 257
 485 405 l 257
EndSplineSet
EndChar

StartChar: four
Encoding: 52 52 221
Width: 1238
VWidth: 0
GlyphClass: 2
Flags: W
PickledData: "(dp1
S'org.pippin.gimp.org.kernagic'
p2
(dp3
S'lstem'
p4
I0
sS'rstem'
p5
I0
ssS'com.typemytype.robofont.layerData'
p6
(dp7
sS'org.robofab.postScriptHintData'
p8
(dp9
s."
LayerCount: 2
Fore
SplineSet
292 506 m 257
 794 1259 l 257
 794 506 l 257
 292 506 l 257
794 0 m 257
 941 0 l 257
 941 383 l 257
 1101 383 l 257
 1113 506 l 257
 941 506 l 257
 940 1456 l 257
 790 1456 l 257
 136 515 l 257
 176 383 l 257
 794 383 l 257
 794 0 l 257
EndSplineSet
EndChar

StartChar: fraction
Encoding: 8260 8260 222
Width: 1066
VWidth: 0
GlyphClass: 2
Flags: W
PickledData: "(dp1
S'org.robofab.postScriptHintData'
p2
(dp3
s."
LayerCount: 2
Fore
SplineSet
149 0 m 257
 281 0 l 257
 915 1480 l 257
 782 1480 l 257
 149 0 l 257
EndSplineSet
EndChar

StartChar: g
Encoding: 103 103 223
Width: 1213
VWidth: 0
GlyphClass: 2
Flags: W
PickledData: "(dp1
S'org.pippin.gimp.org.kernagic'
p2
(dp3
S'lstem'
p4
I0
sS'rstem'
p5
I0
ssS'com.fontlab.hintData'
p6
(dp7
S'vhints'
p8
((dp9
S'position'
p10
I128
sS'width'
p11
I122
s(dp12
g10
I977
sg11
I125
s(dp13
g10
I977
sg11
I36
stp14
sS'hhints'
p15
((dp16
g10
I-426
sg11
I101
s(dp17
g10
I0
sg11
I93
s(dp18
g10
I982
sg11
I92
stp19
ssS'com.typemytype.robofont.layerData'
p20
(dp21
sS'org.robofab.postScriptHintData'
p22
(dp23
s."
HStem: -426 101 0 93 982 92
VStem: 128 122 977 125 977 36
AnchorPoint: "top" 607 1082 basechar 0
LayerCount: 2
Fore
SplineSet
596 99 m 256
 367 99 270 288 270 543 c 256
 270 795 368 991 595 991 c 256
 745 991 840 920 902 825 c 257
 902 247 l 257
 849 168 747 99 596 99 c 256
590 -16 m 256
 703 -16 823 21 903 113 c 257
 903 22 l 258
 903 -264 791 -356 560 -356 c 256
 465 -356 350 -334 275 -302 c 257
 256 -302 l 257
 244 -422 l 257
 317 -450 437 -476 560 -476 c 256
 927 -476 1046 -292 1046 62 c 258
 1046 1082 l 257
 920 1082 l 257
 912 957 l 257
 848 1042 743 1105 595 1105 c 256
 280 1105 117 862 117 542 c 256
 117 228 273 -16 590 -16 c 256
EndSplineSet
EndChar

StartChar: germandbls
Encoding: 223 223 229
Width: 1259
VWidth: 0
GlyphClass: 2
Flags: W
PickledData: "(dp1
S'org.pippin.gimp.org.kernagic'
p2
(dp3
S'lstem'
p4
I0
sS'rstem'
p5
I0
ssS'com.typemytype.robofont.layerData'
p6
(dp7
S'b'
(dp8
S'name'
p9
S'germandbls'
p10
sS'lib'
p11
(dp12
sS'unicodes'
p13
(tsS'width'
p14
I1278
sS'contours'
p15
(tsS'components'
p16
(tsS'anchors'
p17
(tsssS'org.robofab.postScriptHintData'
p18
(dp19
s."
LayerCount: 2
Fore
SplineSet
836 -20 m 256
 1033 -20 1152 102 1152 290 c 256
 1152 585 758 687 758 808 c 256
 758 904 973 1025 973 1235 c 256
 973 1417 838 1547 614 1547 c 256
 316 1547 176 1369 176 1075 c 258
 176 1 l 257
 326 1 l 257
 326 1081 l 258
 326 1335 427 1428 618 1428 c 256
 760 1428 827 1348 827 1236 c 256
 827 1024 621 962 621 795 c 256
 621 597 1007 503 1007 285 c 256
 1007 195 956 103 822 103 c 256
 706 103 594 144 536 175 c 257
 494 59 l 257
 566 20 705 -20 836 -20 c 256
EndSplineSet
EndChar

StartChar: grave
Encoding: 96 96 230
Width: 890
VWidth: 0
GlyphClass: 4
Flags: W
PickledData: "(dp1
S'org.robofab.postScriptHintData'
p2
(dp3
sS'com.typemytype.robofont.layerData'
p4
(dp5
s."
AnchorPoint: "top" 452 1062 mark 0
LayerCount: 2
Fore
SplineSet
400 1209 m 257
 499 1209 l 257
 298 1578 l 257
 100 1578 l 257
 400 1209 l 257
EndSplineSet
EndChar

StartChar: greater
Encoding: 62 62 231
Width: 1134
VWidth: 0
GlyphClass: 2
Flags: W
PickledData: "(dp1
S'org.pippin.gimp.org.kernagic'
p2
(dp3
S'lstem'
p4
I0
sS'rstem'
p5
I0
ssS'com.typemytype.robofont.layerData'
p6
(dp7
S'b'
(dp8
S'name'
p9
S'greater'
p10
sS'lib'
p11
(dp12
sS'unicodes'
p13
(tsS'width'
p14
I1107
sS'contours'
p15
(tsS'components'
p16
(tsS'anchors'
p17
(tsssS'org.robofab.postScriptHintData'
p18
(dp19
s."
LayerCount: 2
Fore
SplineSet
106 1029 m 257
 863 629 l 257
 104 268 l 257
 104 135 l 257
 1036 581 l 257
 1036 665 l 257
 106 1161 l 257
 106 1029 l 257
EndSplineSet
EndChar

StartChar: greaterequal
Encoding: 8805 8805 232
Width: 1203
VWidth: 0
GlyphClass: 2
Flags: W
PickledData: "(dp1
S'org.pippin.gimp.org.kernagic'
p2
(dp3
S'lstem'
p4
I0
sS'rstem'
p5
I0
ssS'com.typemytype.robofont.layerData'
p6
(dp7
S'b'
(dp8
S'name'
p9
S'greaterequal'
p10
sS'lib'
p11
(dp12
sS'unicodes'
p13
(tsS'width'
p14
I1192
sS'contours'
p15
(tsS'components'
p16
(tsS'anchors'
p17
(tsssS'org.robofab.postScriptHintData'
p18
(dp19
s."
LayerCount: 2
Fore
SplineSet
128 9 m 257
 1067 9 l 257
 1067 128 l 257
 128 127 l 257
 128 9 l 257
161 238 m 257
 1046 721 l 257
 1046 795 l 257
 166 1308 l 257
 166 1179 l 257
 900 758 l 257
 161 364 l 257
 161 238 l 257
EndSplineSet
EndChar

StartChar: guillemotleft
Encoding: 171 171 233
Width: 998
VWidth: 0
GlyphClass: 2
Flags: W
PickledData: "(dp1
S'org.pippin.gimp.org.kernagic'
p2
(dp3
S'lstem'
p4
I0
sS'rstem'
p5
I0
ssS'com.typemytype.robofont.layerData'
p6
(dp7
S'b'
(dp8
S'name'
p9
S'guillemotleft'
p10
sS'lib'
p11
(dp12
sS'unicodes'
p13
(tsS'width'
p14
I994
sS'contours'
p15
(tsS'components'
p16
(tsS'anchors'
p17
(tsssS'org.robofab.postScriptHintData'
p18
(dp19
s."
LayerCount: 2
Fore
SplineSet
723 151 m 257
 859 154 l 257
 586 550 l 257
 866 942 l 257
 726 945 l 257
 442 547 l 257
 723 151 l 257
379 151 m 257
 515 154 l 257
 243 550 l 257
 523 942 l 257
 383 945 l 257
 98 547 l 257
 379 151 l 257
EndSplineSet
EndChar

StartChar: guillemotright
Encoding: 187 187 234
Width: 988
VWidth: 0
GlyphClass: 2
Flags: W
PickledData: "(dp1
S'org.pippin.gimp.org.kernagic'
p2
(dp3
S'lstem'
p4
I0
sS'rstem'
p5
I0
ssS'com.typemytype.robofont.layerData'
p6
(dp7
sS'org.robofab.postScriptHintData'
p8
(dp9
s."
LayerCount: 2
Fore
SplineSet
591 151 m 257
 873 547 l 257
 589 945 l 257
 449 942 l 257
 728 548 l 257
 454 154 l 257
 591 151 l 257
246 151 m 257
 528 547 l 257
 245 945 l 257
 105 942 l 257
 384 548 l 257
 109 154 l 257
 246 151 l 257
EndSplineSet
EndChar

StartChar: guilsinglleft
Encoding: 8249 8249 235
Width: 613
VWidth: 0
GlyphClass: 2
Flags: W
PickledData: "(dp1
S'org.robofab.postScriptHintData'
p2
(dp3
s."
LayerCount: 2
Fore
SplineSet
386 146 m 257
 527 146 l 257
 243 555 l 257
 534 964 l 257
 390 964 l 257
 95 553 l 257
 386 146 l 257
EndSplineSet
EndChar

StartChar: guilsinglright
Encoding: 8250 8250 236
Width: 748
VWidth: 0
GlyphClass: 2
Flags: W
PickledData: "(dp1
S'org.pippin.gimp.org.kernagic'
p2
(dp3
S'lstem'
p4
I0
sS'rstem'
p5
I0
ssS'com.typemytype.robofont.layerData'
p6
(dp7
S'b'
(dp8
S'name'
p9
S'guilsinglright'
p10
sS'lib'
p11
(dp12
sS'unicodes'
p13
(tsS'width'
p14
I766
sS'contours'
p15
(tsS'components'
p16
(tsS'anchors'
p17
(tsssS'org.robofab.postScriptHintData'
p18
(dp19
s."
LayerCount: 2
Fore
SplineSet
157 146 m 257
 299 146 l 257
 598 572 l 257
 296 1002 l 257
 153 1002 l 257
 444 571 l 257
 157 146 l 257
EndSplineSet
EndChar

StartChar: h
Encoding: 104 104 237
Width: 1199
VWidth: 0
GlyphClass: 2
Flags: W
PickledData: "(dp1
S'org.pippin.gimp.org.kernagic'
p2
(dp3
S'lstem'
p4
I0
sS'rstem'
p5
I0
ssS'com.fontlab.hintData'
p6
(dp7
S'vhints'
p8
((dp9
S'position'
p10
I193
sS'width'
p11
I122
s(dp12
g10
I910
sg11
I122
stp13
sS'hhints'
p14
((dp15
g10
I982
sg11
I92
stp16
ssS'com.typemytype.robofont.layerData'
p17
(dp18
sS'org.robofab.postScriptHintData'
p19
(dp20
s."
HStem: 982 92
VStem: 193 122 910 122
AnchorPoint: "top" 657 1363 basechar 0
LayerCount: 2
Fore
SplineSet
174 0 m 257
 323 0 l 257
 323 606 l 258
 323 789 399 991 661 991 c 256
 829 991 891 881 891 667 c 258
 891 0 l 257
 1042 0 l 257
 1042 671 l 258
 1042 945 917 1105 684 1105 c 256
 532 1105 395 1052 318 886 c 257
 323 1141 l 257
 323 1560 l 257
 174 1540 l 257
 174 0 l 257
EndSplineSet
EndChar

StartChar: hungarumlaut
Encoding: 733 733 240
Width: 769
VWidth: 0
GlyphClass: 4
Flags: W
PickledData: "(dp1
S'org.robofab.postScriptHintData'
p2
(dp3
sS'com.typemytype.robofont.layerData'
p4
(dp5
s."
AnchorPoint: "top" 332 1062 mark 0
LayerCount: 2
Fore
SplineSet
418 1244 m 257
 512 1244 l 257
 723 1581 l 257
 568 1581 l 257
 418 1244 l 257
166 1244 m 257
 261 1244 l 257
 430 1581 l 257
 291 1581 l 257
 166 1244 l 257
EndSplineSet
EndChar

StartChar: hyphen
Encoding: 45 45 241
Width: 843
VWidth: 0
GlyphClass: 4
Flags: W
PickledData: "(dp1
S'org.pippin.gimp.org.kernagic'
p2
(dp3
S'lstem'
p4
I0
sS'rstem'
p5
I0
ssS'com.typemytype.robofont.layerData'
p6
(dp7
sS'org.robofab.postScriptHintData'
p8
(dp9
s."
LayerCount: 2
Fore
SplineSet
168 535 m 257
 661 535 l 257
 661 655 l 257
 168 655 l 257
 168 535 l 257
EndSplineSet
EndChar

StartChar: i
Encoding: 105 105 242
Width: 507
VWidth: 0
GlyphClass: 2
Flags: HW
PickledData: "(dp1
S'org.robofab.postScriptHintData'
p2
(dp3
sS'com.typemytype.robofont.layerData'
p4
(dp5
s."
LayerCount: 2
Fore
SplineSet
383 1423 m 256
 383 1492 343 1533 269 1533 c 256
 195 1533 155 1492 155 1423 c 256
 155 1353 195 1311 269 1311 c 256
 343 1311 383 1353 383 1423 c 256
188 1082 m 257
 188 0 l 257
 338 0 l 257
 338 1082 l 257
 188 1082 l 257
EndSplineSet
EndChar

StartChar: infinity
Encoding: 8734 8734 253
Width: 1665
VWidth: 0
GlyphClass: 2
Flags: W
PickledData: "(dp1
S'org.pippin.gimp.org.kernagic'
p2
(dp3
S'lstem'
p4
I0
sS'rstem'
p5
I0
ssS'com.typemytype.robofont.layerData'
p6
(dp7
S'b'
(dp8
S'name'
p9
S'infinity'
p10
sS'lib'
p11
(dp12
sS'unicodes'
p13
(tsS'width'
p14
I1647
sS'contours'
p15
(tsS'components'
p16
(tsS'anchors'
p17
(tsssS'org.robofab.postScriptHintData'
p18
(dp19
s."
LayerCount: 2
Fore
SplineSet
1467 655 m 256
 1467 491 1389 367 1236 367 c 256
 1115 367 1021 455 894 632 c 257
 989 776 1097 890 1232 890 c 256
 1370 890 1467 785 1467 655 c 256
769 625 m 257
 669 476 558 367 427 367 c 256
 279 367 180 492 180 629 c 256
 180 773 273 890 420 890 c 256
 561 890 670 785 769 625 c 257
831 727 m 257
 703 900 581 1004 421 1004 c 256
 226 1004 76 850 76 650 c 256
 76 431 207 251 425 251 c 256
 583 251 707 358 832 526 c 257
 970 339 1090 251 1234 251 c 256
 1431 251 1580 407 1580 632 c 256
 1580 849 1454 1004 1236 1004 c 256
 1073 1004 951 896 831 727 c 257
EndSplineSet
EndChar

StartChar: integral
Encoding: 8747 8747 254
Width: 939
VWidth: 0
GlyphClass: 2
Flags: W
PickledData: "(dp1
S'org.pippin.gimp.org.kernagic'
p2
(dp3
S'lstem'
p4
I0
sS'rstem'
p5
I0
ssS'com.typemytype.robofont.layerData'
p6
(dp7
S'b'
(dp8
S'name'
p9
S'integral'
p10
sS'lib'
p11
(dp12
sS'unicodes'
p13
(tsS'width'
p14
I994
sS'contours'
p15
(tsS'components'
p16
(tsS'anchors'
p17
(tsssS'org.robofab.postScriptHintData'
p18
(dp19
s."
LayerCount: 2
Fore
SplineSet
494 1150 m 258
 494 -42 l 258
 494 -210 473 -322 336 -322 c 256
 309 -322 276 -318 240 -308 c 257
 240 -398 l 257
 281 -407 318 -411 351 -411 c 256
 532 -411 604 -279 604 -34 c 258
 604 1154 l 258
 604 1326 628 1419 745 1419 c 256
 772 1419 802 1414 838 1403 c 257
 838 1493 l 257
 794 1503 755 1508 721 1508 c 256
 554 1508 494 1389 494 1150 c 258
EndSplineSet
EndChar

StartChar: j
Encoding: 106 106 257
Width: 565
VWidth: 0
GlyphClass: 2
Flags: HW
PickledData: "(dp1
S'org.robofab.postScriptHintData'
p2
(dp3
sS'com.typemytype.robofont.layerData'
p4
(dp5
s."
LayerCount: 2
Fore
SplineSet
433 1422 m 256
 433 1491 393 1532 319 1532 c 256
 245 1532 205 1491 205 1422 c 256
 205 1352 245 1310 319 1310 c 256
 393 1310 433 1352 433 1422 c 256
241 1082 m 257
 241 28 l 258
 241 -165 238 -208 88 -232 c 257
 31 -242 l 257
 45 -364 l 257
 104 -358 l 258
 307 -337 390 -264 390 -12 c 258
 390 1082 l 257
 241 1082 l 257
EndSplineSet
EndChar

StartChar: k
Encoding: 107 107 259
Width: 1079
VWidth: 0
GlyphClass: 2
Flags: W
PickledData: "(dp1
S'org.pippin.gimp.org.kernagic'
p2
(dp3
S'lstem'
p4
I0
sS'rstem'
p5
I671
ssS'com.typemytype.robofont.layerData'
p6
(dp7
sS'org.robofab.postScriptHintData'
p8
(dp9
s."
AnchorPoint: "bot" 588 0 basechar 0
LayerCount: 2
Fore
SplineSet
174 0 m 257
 324 0 l 257
 324 397 l 257
 455 510 l 257
 888 0 l 257
 1052 0 l 257
 1052 20 l 257
 557 585 l 257
 1024 1062 l 257
 1024 1082 l 257
 854 1082 l 257
 318 527 l 257
 324 743 l 257
 324 1560 l 257
 174 1540 l 257
 174 0 l 257
EndSplineSet
EndChar

StartChar: kgreenlandic
Encoding: 312 312 261
Width: 1074
VWidth: 0
GlyphClass: 2
Flags: W
PickledData: "(dp1
S'org.robofab.postScriptHintData'
p2
(dp3
s."
LayerCount: 2
Fore
SplineSet
162 0 m 257
 312 0 l 257
 312 398 l 257
 443 512 l 257
 877 0 l 257
 1039 0 l 257
 1039 22 l 257
 546 587 l 257
 1011 1060 l 257
 1011 1082 l 257
 842 1082 l 257
 306 528 l 257
 312 745 l 257
 312 1082 l 257
 162 1082 l 257
 162 0 l 257
EndSplineSet
EndChar

StartChar: l
Encoding: 108 108 262
Width: 615
VWidth: 0
GlyphClass: 2
Flags: W
PickledData: "(dp1
S'org.pippin.gimp.org.kernagic'
p2
(dp3
S'lstem'
p4
I0
sS'rstem'
p5
I238
ssS'com.fontlab.hintData'
p6
(dp7
S'vhints'
p8
((dp9
S'position'
p10
I193
sS'width'
p11
I122
stp12
sS'hhints'
p13
((dp14
g10
I-11
sg11
I87
stp15
ssS'com.typemytype.robofont.layerData'
p16
(dp17
sS'org.robofab.postScriptHintData'
p18
(dp19
s."
HStem: -11 87
VStem: 193 122
AnchorPoint: "top" 345 1489 basechar 0
LayerCount: 2
Fore
SplineSet
448 -8 m 256
 461 -8 525 -8 530 -7 c 257
 541 103 l 257
 539 103 486 105 475 105 c 256
 349 112 326 136 326 296 c 258
 326 1560 l 257
 176 1540 l 257
 176 292 l 258
 176 37 284 -8 448 -8 c 256
EndSplineSet
EndChar

StartChar: less
Encoding: 60 60 267
Width: 1131
VWidth: 0
GlyphClass: 2
Flags: W
PickledData: "(dp1
S'org.pippin.gimp.org.kernagic'
p2
(dp3
S'lstem'
p4
I0
sS'rstem'
p5
I0
ssS'com.typemytype.robofont.layerData'
p6
(dp7
S'b'
(dp8
S'name'
p9
S'less'
p10
sS'lib'
p11
(dp12
sS'unicodes'
p13
(tsS'width'
p14
I1107
sS'contours'
p15
(tsS'components'
p16
(tsS'anchors'
p17
(tsssS'org.robofab.postScriptHintData'
p18
(dp19
s."
LayerCount: 2
Fore
SplineSet
1018 129 m 257
 1019 261 l 257
 252 629 l 257
 1019 1022 l 257
 1019 1154 l 257
 87 666 l 257
 87 583 l 257
 1018 129 l 257
EndSplineSet
EndChar

StartChar: lessequal
Encoding: 8804 8804 268
Width: 1204
VWidth: 0
GlyphClass: 2
Flags: W
PickledData: "(dp1
S'org.robofab.postScriptHintData'
p2
(dp3
sS'com.typemytype.robofont.layerData'
p4
(dp5
s."
LayerCount: 2
Fore
SplineSet
127 6 m 257
 1068 6 l 257
 1068 123 l 257
 127 124 l 257
 127 6 l 257
1035 235 m 257
 1035 360 l 257
 317 756 l 257
 1032 1178 l 257
 1032 1307 l 257
 153 793 l 257
 153 719 l 257
 1035 235 l 257
EndSplineSet
EndChar

StartChar: logicalnot
Encoding: 172 172 269
Width: 1243
VWidth: 0
GlyphClass: 2
Flags: W
PickledData: "(dp1
S'org.pippin.gimp.org.kernagic'
p2
(dp3
S'lstem'
p4
I0
sS'rstem'
p5
I0
ssS'com.typemytype.robofont.layerData'
p6
(dp7
sS'org.robofab.postScriptHintData'
p8
(dp9
s."
LayerCount: 2
Fore
SplineSet
106 799 m 257
 106 682 l 257
 951 682 l 257
 951 255 l 257
 1061 255 l 257
 1061 799 l 257
 106 799 l 257
EndSplineSet
EndChar

StartChar: lozenge
Encoding: 9674 9674 270
Width: 1169
VWidth: 0
GlyphClass: 2
Flags: W
PickledData: "(dp1
S'org.pippin.gimp.org.kernagic'
p2
(dp3
S'lstem'
p4
I0
sS'rstem'
p5
I0
ssS'com.typemytype.robofont.layerData'
p6
(dp7
S'b'
(dp8
S'name'
p9
S'lozenge'
p10
sS'lib'
p11
(dp12
sS'unicodes'
p13
(tsS'width'
p14
I1164
sS'contours'
p15
(tsS'components'
p16
(tsS'anchors'
p17
(tsssS'org.robofab.postScriptHintData'
p18
(dp19
s."
LayerCount: 2
Fore
SplineSet
910 770 m 257
 580 112 l 257
 254 772 l 257
 588 1424 l 257
 910 770 l 257
537 1589 m 257
 118 770 l 257
 530 -46 l 257
 626 -46 l 257
 1045 772 l 257
 634 1589 l 257
 537 1589 l 257
EndSplineSet
EndChar

StartChar: m
Encoding: 109 109 272
Width: 1815
VWidth: 0
GlyphClass: 2
Flags: W
PickledData: "(dp1
S'org.pippin.gimp.org.kernagic'
p2
(dp3
S'lstem'
p4
I0
sS'rstem'
p5
I0
ssS'com.fontlab.hintData'
p6
(dp7
S'vhints'
p8
((dp9
S'position'
p10
I193
sS'width'
p11
I122
s(dp12
g10
I193
sg11
I98
s(dp13
g10
I845
sg11
I122
s(dp14
g10
I1483
sg11
I122
stp15
sS'hhints'
p16
((dp17
g10
I982
sg11
I92
stp18
ssS'com.typemytype.robofont.layerData'
p19
(dp20
sS'org.robofab.postScriptHintData'
p21
(dp22
s."
HStem: 982 92
VStem: 193 122 193 98 845 122 1483 122
AnchorPoint: "top" 945 1082 basechar 0
LayerCount: 2
Fore
SplineSet
990 607 m 258
 990 843 1136 991 1299 991 c 256
 1480 991 1508 822 1508 659 c 258
 1508 0 l 257
 1658 0 l 257
 1658 691 l 258
 1658 965 1543 1105 1320 1105 c 256
 1165 1105 1029 1029 959 847 c 257
 921 1003 817 1105 648 1105 c 256
 507 1105 383 1037 313 872 c 257
 296 1082 l 257
 172 1082 l 257
 172 0 l 257
 322 0 l 257
 322 646 l 257
 343 832 438 991 627 991 c 256
 786 991 840 873 840 630 c 258
 840 0 l 257
 990 0 l 257
 990 607 l 258
EndSplineSet
EndChar

StartChar: macron
Encoding: 175 175 273
Width: 1171
VWidth: 0
GlyphClass: 4
Flags: W
PickledData: "(dp1
S'org.robofab.postScriptHintData'
p2
(dp3
sS'com.typemytype.robofont.layerData'
p4
(dp5
s."
AnchorPoint: "top" 585 1062 mark 0
LayerCount: 2
Fore
SplineSet
293 1343 m 257
 843 1343 l 257
 843 1430 l 257
 293 1430 l 257
 293 1343 l 257
EndSplineSet
EndChar

StartChar: minus
Encoding: 8722 8722 275
Width: 1148
VWidth: 0
GlyphClass: 2
Flags: W
PickledData: "(dp1
S'org.pippin.gimp.org.kernagic'
p2
(dp3
S'lstem'
p4
I0
sS'rstem'
p5
I0
ssS'com.typemytype.robofont.layerData'
p6
(dp7
sS'org.robofab.postScriptHintData'
p8
(dp9
s."
LayerCount: 2
Fore
SplineSet
97 669 m 257
 97 540 l 257
 1049 540 l 257
 1049 669 l 257
 97 669 l 257
EndSplineSet
EndChar

StartChar: multiply
Encoding: 215 215 276
Width: 923
VWidth: 0
GlyphClass: 2
Flags: W
PickledData: "(dp1
S'org.pippin.gimp.org.kernagic'
p2
(dp3
S'lstem'
p4
I0
sS'rstem'
p5
I0
ssS'com.typemytype.robofont.layerData'
p6
(dp7
sS'org.robofab.postScriptHintData'
p8
(dp9
s."
LayerCount: 2
Fore
SplineSet
98 954 m 257
 378 649 l 257
 87 334 l 257
 168 252 l 257
 458 563 l 257
 746 252 l 257
 823 337 l 257
 823 337 553 634 538 649 c 257
 820 950 l 257
 734 1035 l 257
 458 735 l 257
 180 1040 l 257
 98 954 l 257
EndSplineSet
EndChar

StartChar: n
Encoding: 110 110 277
Width: 1191
VWidth: 0
GlyphClass: 2
Flags: W
PickledData: "(dp1
S'org.pippin.gimp.org.kernagic'
p2
(dp3
S'lstem'
p4
I0
sS'rstem'
p5
I0
ssS'com.fontlab.hintData'
p6
(dp7
S'vhints'
p8
((dp9
S'position'
p10
I193
sS'width'
p11
I122
s(dp12
g10
I903
sg11
I122
stp13
sS'hhints'
p14
((dp15
g10
I0
sg11
I22
s(dp16
g10
I982
sg11
I92
s(dp17
g10
I1034
sg11
I21
stp18
ssS'com.typemytype.robofont.layerData'
p19
(dp20
sS'org.robofab.postScriptHintData'
p21
(dp22
s."
HStem: 0 22 982 92 1034 21
VStem: 193 122 903 122
AnchorPoint: "top" 685 1082 basechar 0
AnchorPoint: "bot" 598 0 basechar 0
LayerCount: 2
Fore
SplineSet
172 0 m 257
 322 0 l 257
 322 623 l 258
 322 815 411 991 658 991 c 256
 834 991 884 862 884 678 c 258
 884 0 l 257
 1034 0 l 257
 1034 652 l 258
 1034 949 925 1105 682 1105 c 256
 505 1105 379 1037 313 876 c 257
 296 1082 l 257
 172 1082 l 257
 172 0 l 257
EndSplineSet
EndChar

StartChar: nine
Encoding: 57 57 282
Width: 1238
VWidth: 0
GlyphClass: 2
Flags: W
PickledData: "(dp1
S'org.pippin.gimp.org.kernagic'
p2
(dp3
S'lstem'
p4
I0
sS'rstem'
p5
I0
ssS'com.typemytype.robofont.layerData'
p6
(dp7
sS'org.robofab.postScriptHintData'
p8
(dp9
s."
LayerCount: 2
Fore
SplineSet
975 1024 m 256
 975 767 766 696 637 696 c 256
 432 696 324 839 324 1021 c 256
 324 1198 443 1356 652 1356 c 256
 862 1356 975 1198 975 1024 c 256
356 0 m 257
 519 0 l 257
 874 456 l 258
 1020 644 1116 792 1116 1013 c 256
 1116 1250 953 1476 651 1476 c 256
 365 1476 178 1273 178 1020 c 256
 178 755 369 575 602 575 c 256
 689 575 781 601 855 652 c 257
 693 436 522 229 356 18 c 257
 356 0 l 257
EndSplineSet
EndChar

StartChar: notequal
Encoding: 8800 8800 283
Width: 1096
VWidth: 0
GlyphClass: 2
Flags: W
PickledData: "(dp1
S'org.pippin.gimp.org.kernagic'
p2
(dp3
S'lstem'
p4
I0
sS'rstem'
p5
I0
ssS'com.typemytype.robofont.layerData'
p6
(dp7
S'b'
(dp8
S'name'
p9
S'notequal'
p10
sS'lib'
p11
(dp12
sS'unicodes'
p13
(tsS'width'
p14
I1079
sS'contours'
p15
(tsS'components'
p16
(tsS'anchors'
p17
(tsssS'org.robofab.postScriptHintData'
p18
(dp19
s."
LayerCount: 2
Fore
SplineSet
301 49 m 257
 451 358 l 257
 996 358 l 257
 991 466 l 257
 498 466 l 257
 670 797 l 257
 996 797 l 257
 988 905 l 257
 716 905 l 257
 842 1194 l 257
 752 1204 l 257
 606 905 l 257
 77 905 l 257
 83 796 l 257
 559 796 l 257
 392 466 l 257
 78 466 l 257
 83 358 l 257
 338 358 l 257
 212 63 l 257
 301 49 l 257
EndSplineSet
EndChar

StartChar: numbersign
Encoding: 35 35 285
Width: 1166
VWidth: 0
GlyphClass: 2
Flags: W
PickledData: "(dp1
S'org.pippin.gimp.org.kernagic'
p2
(dp3
S'lstem'
p4
I0
sS'rstem'
p5
I0
ssS'com.typemytype.robofont.layerData'
p6
(dp7
sS'org.robofab.postScriptHintData'
p8
(dp9
s."
LayerCount: 2
Fore
SplineSet
391 529 m 257
 485 986 l 257
 787 986 l 257
 694 529 l 257
 391 529 l 257
185 -16 m 257
 281 -16 l 257
 374 441 l 257
 675 441 l 257
 584 -16 l 257
 678 -16 l 257
 770 441 l 257
 993 441 l 257
 1008 529 l 257
 789 529 l 257
 882 986 l 257
 1088 986 l 257
 1102 1072 l 257
 899 1072 l 257
 998 1538 l 257
 905 1538 l 257
 805 1072 l 257
 503 1072 l 257
 602 1538 l 257
 505 1538 l 257
 405 1072 l 257
 208 1072 l 257
 196 986 l 257
 387 986 l 257
 294 529 l 257
 101 529 l 257
 89 441 l 257
 277 441 l 257
 185 -16 l 257
EndSplineSet
EndChar

StartChar: o
Encoding: 111 111 286
Width: 1200
VWidth: 0
GlyphClass: 2
Flags: W
PickledData: "(dp1
S'org.pippin.gimp.org.kernagic'
p2
(dp3
S'lstem'
p4
I0
sS'rstem'
p5
I0
ssS'org.robofab.postScriptHintData'
p6
(dp7
sS'com.typemytype.robofont.guides'
p8
((dp9
S'y'
I1093
sS'x'
I582
sS'magnetic'
p10
I5
sS'angle'
p11
F90
sS'isGlobal'
p12
I00
stp13
sS'com.typemytype.robofont.layerData'
p14
(dp15
sS'com.fontlab.hintData'
p16
(dp17
S'vhints'
p18
((dp19
S'position'
p20
I128
sS'width'
p21
I120
s(dp22
g20
I982
sg21
I120
stp23
sS'hhints'
p24
((dp25
g20
I-19
sg21
I92
s(dp26
g20
I982
sg21
I92
stp27
ss."
HStem: -19 92 982 92
VStem: 128 120 982 120
AnchorPoint: "top" 601 1082 basechar 0
LayerCount: 2
Fore
SplineSet
600 -20 m 256
 907 -20 1083 208 1083 542 c 256
 1083 885 910 1105 600 1105 c 256
 290 1105 117 885 117 542 c 256
 117 208 293 -20 600 -20 c 256
600 94 m 256
 376 94 271 286 271 541 c 256
 271 803 377 991 600 991 c 256
 823 991 929 803 929 540 c 256
 929 286 823 94 600 94 c 256
EndSplineSet
Substitution2: "Single Substitution lookup 4 subtable" ordmasculine
EndChar

StartChar: oe
Encoding: 339 339 291
Width: 1931
VWidth: 0
GlyphClass: 2
Flags: W
PickledData: "(dp1
S'org.pippin.gimp.org.kernagic'
p2
(dp3
S'lstem'
p4
I0
sS'rstem'
p5
I0
ssS'com.typemytype.robofont.layerData'
p6
(dp7
S'b'
(dp8
S'name'
p9
S'oe'
p10
sS'lib'
p11
(dp12
sS'unicodes'
p13
(tsS'width'
p14
F1915.3599999999999
sS'contours'
p15
(tsS'components'
p16
(tsS'anchors'
p17
(tsssS'org.robofab.postScriptHintData'
p18
(dp19
s."
LayerCount: 2
Fore
SplineSet
1084 619 m 257
 1105 839 1234 984 1425 984 c 256
 1612 984 1697 849 1701 619 c 257
 1084 619 l 257
598 95 m 256
 368 95 269 289 269 537 c 256
 269 791 369 984 598 984 c 256
 828 984 927 791 927 536 c 256
 927 290 830 95 598 95 c 256
1821 518 m 257
 1821 521 1828 592 1828 619 c 256
 1828 916 1672 1099 1418 1099 c 256
 1250 1099 1077 996 1010 820 c 257
 955 992 796 1099 598 1099 c 256
 285 1099 115 875 115 538 c 256
 115 208 287 -20 598 -20 c 256
 789 -20 956 95 1008 266 c 257
 1070 90 1251 -20 1434 -20 c 256
 1590 -20 1706 25 1799 84 c 257
 1762 186 l 257
 1750 186 l 257
 1652 132 1576 96 1451 96 c 256
 1252 96 1081 214 1081 518 c 257
 1821 518 l 257
EndSplineSet
EndChar

StartChar: ogonek
Encoding: 731 731 292
Width: 736
VWidth: 0
GlyphClass: 4
Flags: W
PickledData: "(dp1
S'org.pippin.gimp.org.kernagic'
p2
(dp3
S'lstem'
p4
I0
sS'rstem'
p5
I0
ssS'com.typemytype.robofont.layerData'
p6
(dp7
sS'org.robofab.postScriptHintData'
p8
(dp9
s."
LayerCount: 2
Fore
SplineSet
415 -413 m 256
 462 -413 520 -400 552 -385 c 257
 551 -292 l 257
 530 -301 486 -315 447 -315 c 256
 400 -315 360 -291 360 -231 c 256
 360 -151 447 -43 512 3 c 257
 436 3 l 257
 328 -45 233 -160 233 -268 c 256
 233 -359 300 -413 415 -413 c 256
EndSplineSet
EndChar

StartChar: one
Encoding: 49 49 296
Width: 1238
VWidth: 0
GlyphClass: 2
Flags: W
PickledData: "(dp1
S'org.pippin.gimp.org.kernagic'
p2
(dp3
S'lstem'
p4
I0
sS'rstem'
p5
I0
ssS'com.typemytype.robofont.layerData'
p6
(dp7
sS'org.robofab.postScriptHintData'
p8
(dp9
s."
LayerCount: 2
Fore
SplineSet
206 0 m 257
 1093 0 l 257
 1093 113 l 257
 746 113 l 257
 746 1456 l 257
 604 1456 l 257
 529 1403 303 1325 226 1310 c 257
 226 1187 l 257
 296 1196 485 1255 595 1316 c 257
 595 113 l 257
 206 113 l 257
 206 0 l 257
EndSplineSet
EndChar

StartChar: onehalf
Encoding: 189 189 297
Width: 1738
VWidth: 0
GlyphClass: 3
Flags: W
PickledData: "(dp1
S'org.pippin.gimp.org.kernagic'
p2
(dp3
S'lstem'
p4
I0
sS'rstem'
p5
I0
ssS'com.typemytype.robofont.layerData'
p6
(dp7
sS'org.robofab.postScriptHintData'
p8
(dp9
s."
LayerCount: 2
Fore
SplineSet
374 0 m 257
 495 0 l 257
 1395 1486 l 257
 1275 1486 l 257
 374 0 l 257
131 611 m 257
 548 611 l 257
 548 712 l 257
 408 712 l 257
 408 1483 l 257
 307 1483 l 257
 264 1443 158 1396 122 1381 c 257
 122 1278 l 257
 156 1293 245 1328 282 1353 c 257
 282 712 l 257
 131 712 l 257
 131 611 l 257
1121 0 m 257
 1628 0 l 257
 1632 105 l 257
 1267 105 l 257
 1285 123 1442 271 1455 284 c 256
 1579 402 1641 477 1641 611 c 256
 1641 775 1514 864 1363 864 c 256
 1244 864 1135 804 1081 705 c 257
 1151 634 l 257
 1209 718 1279 754 1361 754 c 256
 1449 754 1519 704 1519 605 c 256
 1519 531 1486 470 1373 354 c 256
 1359 341 1146 125 1121 100 c 257
 1121 0 l 257
EndSplineSet
Ligature2: "fracDiagonalFractionslookup11 subtable" one slash two
EndChar

StartChar: onequarter
Encoding: 188 188 298
Width: 1727
VWidth: 0
GlyphClass: 3
Flags: W
PickledData: "(dp1
S'org.pippin.gimp.org.kernagic'
p2
(dp3
S'lstem'
p4
I0
sS'rstem'
p5
I0
ssS'com.typemytype.robofont.layerData'
p6
(dp7
sS'org.robofab.postScriptHintData'
p8
(dp9
s."
LayerCount: 2
Fore
SplineSet
1117 292 m 257
 1392 700 l 257
 1392 292 l 257
 1117 292 l 257
386 0 m 257
 506 0 l 257
 1406 1486 l 257
 1286 1486 l 257
 386 0 l 257
1392 0 m 257
 1508 0 l 257
 1508 197 l 257
 1631 197 l 257
 1624 292 l 257
 1510 292 l 257
 1510 851 l 257
 1382 851 l 257
 989 280 l 257
 989 197 l 257
 1392 197 l 257
 1392 0 l 257
131 611 m 257
 548 611 l 257
 548 712 l 257
 408 712 l 257
 408 1483 l 257
 307 1483 l 257
 264 1443 158 1396 122 1381 c 257
 122 1278 l 257
 156 1293 245 1328 282 1353 c 257
 282 712 l 257
 131 712 l 257
 131 611 l 257
EndSplineSet
Ligature2: "fracDiagonalFractionslookup11 subtable" one slash four
EndChar

StartChar: ordmasculine
Encoding: 186 186 300
Width: 941
VWidth: 0
GlyphClass: 2
Flags: W
PickledData: "(dp1
S'org.pippin.gimp.org.kernagic'
p2
(dp3
S'lstem'
p4
I0
sS'rstem'
p5
I0
ssS'com.typemytype.robofont.layerData'
p6
(dp7
S'b'
(dp8
S'name'
p9
S'ordmasculine'
p10
sS'lib'
p11
(dp12
sS'unicodes'
p13
(tsS'width'
p14
I965
sS'contours'
p15
(tsS'components'
p16
(tsS'anchors'
p17
(tsssS'org.robofab.postScriptHintData'
p18
(dp19
s."
LayerCount: 2
Fore
SplineSet
681 1106 m 256
 681 939 613 831 468 831 c 256
 331 831 263 940 263 1109 c 256
 263 1280 332 1392 468 1392 c 256
 609 1392 681 1278 681 1106 c 256
133 1108 m 256
 133 892 252 731 468 731 c 256
 672 731 804 895 804 1108 c 256
 804 1332 690 1491 468 1491 c 256
 252 1491 133 1329 133 1108 c 256
EndSplineSet
EndChar

StartChar: oslash
Encoding: 248 248 301
Width: 1200
VWidth: 0
GlyphClass: 2
Flags: W
PickledData: "(dp1
S'org.pippin.gimp.org.kernagic'
p2
(dp3
S'lstem'
p4
I0
sS'rstem'
p5
I0
ssS'com.typemytype.robofont.layerData'
p6
(dp7
sS'org.robofab.postScriptHintData'
p8
(dp9
s."
LayerCount: 2
Fore
SplineSet
197 -123 m 257
 261 -160 l 257
 987 1198 l 257
 917 1234 l 257
 197 -123 l 257
EndSplineSet
Refer: 286 111 N 1 0 0 1 0 0 2
EndChar

StartChar: p
Encoding: 112 112 304
Width: 1212
VWidth: 0
GlyphClass: 2
Flags: W
PickledData: "(dp1
S'org.pippin.gimp.org.kernagic'
p2
(dp3
S'lstem'
p4
I0
sS'rstem'
p5
I0
ssS'com.fontlab.hintData'
p6
(dp7
S'vhints'
p8
((dp9
S'position'
p10
I193
sS'width'
p11
I122
s(dp12
g10
I193
sg11
I97
s(dp13
g10
I1009
sg11
I122
stp14
sS'hhints'
p15
((dp16
g10
I-19
sg11
I92
s(dp17
g10
I982
sg11
I92
stp18
ssS'com.typemytype.robofont.layerData'
p19
(dp20
sS'org.robofab.postScriptHintData'
p21
(dp22
s."
HStem: -19 92 982 92
VStem: 193 122 193 97 1009 122
AnchorPoint: "top" 664 1082 basechar 0
LayerCount: 2
Fore
SplineSet
627 95 m 256
 488 95 379 153 315 264 c 257
 315 558 l 258
 315 809 408 991 644 991 c 256
 863 991 941 806 941 540 c 256
 941 267 843 95 627 95 c 256
172 -463 m 257
 322 -461 l 257
 322 -75 l 257
 316 105 l 257
 386 25 495 -20 634 -20 c 256
 916 -20 1095 205 1095 539 c 256
 1095 885 950 1105 660 1105 c 256
 491 1105 367 1019 311 851 c 257
 295 1082 l 257
 172 1082 l 257
 172 -463 l 257
EndSplineSet
EndChar

StartChar: paragraph
Encoding: 182 182 305
Width: 1132
VWidth: 0
GlyphClass: 2
Flags: W
PickledData: "(dp1
S'org.pippin.gimp.org.kernagic'
p2
(dp3
S'lstem'
p4
I0
sS'rstem'
p5
I0
ssS'com.typemytype.robofont.layerData'
p6
(dp7
sS'org.robofab.postScriptHintData'
p8
(dp9
s."
LayerCount: 2
Fore
SplineSet
640 1346 m 257
 780 1346 l 257
 780 -199 l 257
 892 -199 l 257
 892 1456 l 257
 540 1456 l 258
 214 1456 138 1269 138 1125 c 256
 138 952 234 783 528 783 c 257
 528 -199 l 257
 640 -199 l 257
 640 1346 l 257
EndSplineSet
EndChar

StartChar: parenright
Encoding: 41 41 307
Width: 750
VWidth: 0
GlyphClass: 2
Flags: W
PickledData: "(dp1
S'org.pippin.gimp.org.kernagic'
p2
(dp3
S'lstem'
p4
I0
sS'rstem'
p5
I0
ssS'com.typemytype.robofont.layerData'
p6
(dp7
S'b'
(dp8
S'name'
p9
S'parenright'
p10
sS'lib'
p11
(dp12
sS'unicodes'
p13
(tsS'width'
p14
I766
sS'contours'
p15
(tsS'components'
p16
(tsS'anchors'
p17
(tsssS'org.robofab.postScriptHintData'
p18
(dp19
s."
LayerCount: 2
Fore
SplineSet
542 684 m 256
 542 1005 456 1316 287 1588 c 257
 161 1588 l 257
 161 1558 l 257
 343 1255 403 972 403 684 c 256
 403 396 343 114 161 -190 c 257
 161 -219 l 257
 287 -219 l 257
 456 53 542 364 542 684 c 256
EndSplineSet
EndChar

StartChar: partialdiff
Encoding: 8706 8706 308
Width: 1167
VWidth: 0
GlyphClass: 2
Flags: W
PickledData: "(dp1
S'org.robofab.postScriptHintData'
p2
(dp3
s."
LayerCount: 2
Fore
SplineSet
477 74 m 256
 383 74 338 153 338 261 c 256
 338 484 531 828 880 835 c 257
 866 524 738 74 477 74 c 256
466 -19 m 256
 803 -19 1032 380 1032 906 c 256
 1032 1318 810 1560 525 1560 c 256
 433 1560 335 1535 236 1482 c 257
 270 1397 l 257
 347 1432 421 1448 489 1448 c 256
 721 1448 885 1257 885 953 c 256
 885 941 884 929 884 917 c 257
 426 917 167 554 167 280 c 256
 167 114 262 -19 466 -19 c 256
EndSplineSet
EndChar

StartChar: percent
Encoding: 37 37 309
Width: 1616
VWidth: 0
GlyphClass: 2
Flags: W
PickledData: "(dp1
S'org.pippin.gimp.org.kernagic'
p2
(dp3
S'lstem'
p4
I0
sS'rstem'
p5
I0
ssS'com.typemytype.robofont.layerData'
p6
(dp7
S'b'
(dp8
S'name'
p9
S'percent'
p10
sS'lib'
p11
(dp12
sS'unicodes'
p13
(tsS'width'
p14
I1563
sS'contours'
p15
(tsS'components'
p16
(tsS'anchors'
p17
(tsssS'org.robofab.postScriptHintData'
p18
(dp19
s."
LayerCount: 2
Fore
SplineSet
1158 -3 m 256
 1381 -3 1464 163 1464 378 c 256
 1464 597 1384 758 1158 758 c 256
 936 758 852 594 852 378 c 256
 852 163 932 -3 1158 -3 c 256
1159 86 m 256
 1000 86 962 210 962 378 c 256
 962 542 999 667 1159 667 c 256
 1317 667 1355 548 1355 378 c 256
 1355 215 1318 86 1159 86 c 256
291 0 m 257
 416 0 l 257
 1235 1457 l 257
 1120 1457 l 257
 291 0 l 257
368 713 m 256
 591 713 674 880 674 1094 c 256
 674 1313 594 1474 368 1474 c 256
 146 1474 68 1310 68 1094 c 256
 68 880 142 713 368 713 c 256
369 803 m 256
 210 803 172 926 172 1095 c 256
 172 1259 210 1384 369 1384 c 256
 527 1384 565 1265 565 1095 c 256
 565 931 528 803 369 803 c 256
EndSplineSet
EndChar

StartChar: period
Encoding: 46 46 310
Width: 588
VWidth: 0
GlyphClass: 2
Flags: W
PickledData: "(dp1
S'org.pippin.gimp.org.kernagic'
p2
(dp3
S'lstem'
p4
I0
sS'rstem'
p5
I0
ssS'com.typemytype.robofont.layerData'
p6
(dp7
S'b'
(dp8
S'name'
p9
S'period'
p10
sS'lib'
p11
(dp12
sS'unicodes'
p13
(tsS'width'
p14
I624
sS'contours'
p15
(tsS'components'
p16
(tsS'anchors'
p17
(tsssS'org.robofab.postScriptHintData'
p18
(dp19
s."
LayerCount: 2
Fore
SplineSet
298 -13 m 256
 367 -13 393 30 393 98 c 256
 393 163 367 205 298 205 c 256
 226 205 202 163 202 98 c 256
 202 30 226 -13 298 -13 c 256
EndSplineSet
EndChar

StartChar: periodcentered
Encoding: 183 183 311
Width: 602
VWidth: 0
GlyphClass: 2
Flags: W
PickledData: "(dp1
S'org.pippin.gimp.org.kernagic'
p2
(dp3
S'lstem'
p4
I0
sS'rstem'
p5
I0
ssS'com.typemytype.robofont.layerData'
p6
(dp7
S'b'
(dp8
S'name'
p9
S'periodcentered'
p10
sS'lib'
p11
(dp12
sS'unicodes'
p13
(tsS'width'
p14
I653
sS'contours'
p15
(tsS'components'
p16
(tsS'anchors'
p17
(tsssS'org.robofab.postScriptHintData'
p18
(dp19
s."
LayerCount: 2
Fore
SplineSet
294 521 m 256
 358 521 398 565 398 624 c 256
 398 682 358 726 294 726 c 256
 230 726 190 682 190 624 c 256
 190 566 230 521 294 521 c 256
EndSplineSet
EndChar

StartChar: perthousand
Encoding: 8240 8240 312
Width: 2336
VWidth: 0
GlyphClass: 2
Flags: W
PickledData: "(dp1
S'org.pippin.gimp.org.kernagic'
p2
(dp3
S'lstem'
p4
I0
sS'rstem'
p5
I0
ssS'com.typemytype.robofont.layerData'
p6
(dp7
S'b'
(dp8
S'name'
p9
S'perthousand'
p10
sS'lib'
p11
(dp12
sS'unicodes'
p13
(tsS'width'
p14
I2251
sS'contours'
p15
(tsS'components'
p16
(tsS'anchors'
p17
(tsssS'org.robofab.postScriptHintData'
p18
(dp19
s."
LayerCount: 2
Fore
SplineSet
1878 -3 m 256
 2102 -3 2184 163 2184 378 c 256
 2184 597 2105 758 1878 758 c 256
 1656 758 1573 594 1573 378 c 256
 1573 163 1652 -3 1878 -3 c 256
1879 86 m 256
 1720 86 1682 210 1682 378 c 256
 1682 542 1720 667 1879 667 c 256
 2038 667 2075 548 2075 378 c 256
 2075 215 2039 86 1879 86 c 256
EndSplineSet
Refer: 309 37 N 1 0 0 1 8 0 2
EndChar

StartChar: pi
Encoding: 960 960 313
Width: 1409
VWidth: 0
GlyphClass: 2
Flags: W
PickledData: "(dp1
S'org.robofab.postScriptHintData'
p2
(dp3
sS'com.typemytype.robofont.layerData'
p4
(dp5
s."
LayerCount: 2
Fore
SplineSet
1121 -12 m 256
 1195 -12 1260 11 1297 45 c 257
 1297 160 l 257
 1268 149 1212 126 1170 126 c 256
 1082 126 1038 224 1038 438 c 256
 1038 560 1053 727 1082 932 c 257
 1324 932 l 257
 1324 1082 l 257
 429 1082 l 258
 190 1082 120 1000 120 779 c 257
 209 779 l 257
 221 875 262 932 348 932 c 258
 476 932 l 257
 404 387 l 258
 375 165 245 104 123 104 c 257
 123 4 l 257
 461 4 527 109 540 333 c 257
 578 932 l 257
 968 932 l 257
 933 679 893 452 893 288 c 256
 893 99 946 -12 1121 -12 c 256
EndSplineSet
EndChar

StartChar: plus
Encoding: 43 43 314
Width: 1139
VWidth: 0
GlyphClass: 2
Flags: W
PickledData: "(dp1
S'org.pippin.gimp.org.kernagic'
p2
(dp3
S'lstem'
p4
I0
sS'rstem'
p5
I0
ssS'com.typemytype.robofont.layerData'
p6
(dp7
S'b'
(dp8
S'name'
p9
S'plus'
p10
sS'lib'
p11
(dp12
sS'unicodes'
p13
(tsS'width'
p14
I1136
sS'contours'
p15
(tsS'components'
p16
(tsS'anchors'
p17
(tsssS'org.robofab.postScriptHintData'
p18
(dp19
s."
LayerCount: 2
Fore
SplineSet
490 1135 m 257
 490 753 l 257
 127 753 l 257
 127 610 l 257
 489 610 l 257
 489 221 l 257
 640 221 l 257
 640 610 l 257
 997 610 l 257
 997 753 l 257
 640 753 l 257
 640 1135 l 257
 490 1135 l 257
EndSplineSet
EndChar

StartChar: plusminus
Encoding: 177 177 315
Width: 1143
VWidth: 0
GlyphClass: 2
Flags: W
PickledData: "(dp1
S'org.pippin.gimp.org.kernagic'
p2
(dp3
S'lstem'
p4
I0
sS'rstem'
p5
I0
ssS'com.typemytype.robofont.layerData'
p6
(dp7
sS'org.robofab.postScriptHintData'
p8
(dp9
s."
LayerCount: 2
Fore
SplineSet
107 107 m 257
 107 0 l 257
 1039 0 l 257
 1039 107 l 257
 107 107 l 257
506 1102 m 257
 506 711 l 257
 131 711 l 257
 131 606 l 257
 506 606 l 257
 506 204 l 257
 620 204 l 257
 620 606 l 257
 987 606 l 257
 987 711 l 257
 619 711 l 257
 619 1102 l 257
 506 1102 l 257
EndSplineSet
EndChar

StartChar: product
Encoding: 8719 8719 316
Width: 1512
VWidth: 0
GlyphClass: 2
Flags: W
PickledData: "(dp1
S'org.pippin.gimp.org.kernagic'
p2
(dp3
S'lstem'
p4
I0
sS'rstem'
p5
I0
ssS'com.typemytype.robofont.layerData'
p6
(dp7
S'b'
(dp8
S'name'
p9
S'product'
p10
sS'lib'
p11
(dp12
sS'unicodes'
p13
(tsS'width'
p14
I1533
sS'contours'
p15
(tsS'components'
p16
(tsS'anchors'
p17
(tsssS'org.robofab.postScriptHintData'
p18
(dp19
s."
LayerCount: 2
Fore
SplineSet
203 1488 m 257
 203 0 l 257
 359 0 l 257
 359 1349 l 257
 1169 1349 l 257
 1169 0 l 257
 1324 0 l 257
 1324 1488 l 257
 203 1488 l 257
EndSplineSet
EndChar

StartChar: q
Encoding: 113 113 317
Width: 1208
VWidth: 0
GlyphClass: 2
Flags: W
PickledData: "(dp1
S'org.pippin.gimp.org.kernagic'
p2
(dp3
S'lstem'
p4
I0
sS'rstem'
p5
I0
ssS'com.typemytype.robofont.layerData'
p6
(dp7
sS'org.robofab.postScriptHintData'
p8
(dp9
s."
LayerCount: 2
Fore
SplineSet
592 95 m 256
 373 95 268 265 268 544 c 256
 268 816 376 991 592 991 c 256
 720 991 823 939 892 828 c 257
 892 238 l 257
 834 145 722 95 592 95 c 256
585 -20 m 256
 692 -20 808 13 889 101 c 257
 886 -42 l 257
 886 -463 l 257
 1036 -462 l 257
 1036 1082 l 257
 911 1082 l 257
 903 955 l 257
 841 1040 739 1105 590 1105 c 256
 292 1105 114 880 114 544 c 256
 114 208 282 -20 585 -20 c 256
EndSplineSet
EndChar

StartChar: question
Encoding: 63 63 318
Width: 907
VWidth: 0
GlyphClass: 2
Flags: W
PickledData: "(dp1
S'org.pippin.gimp.org.kernagic'
p2
(dp3
S'lstem'
p4
I0
sS'rstem'
p5
I0
ssS'com.typemytype.robofont.layerData'
p6
(dp7
sS'org.robofab.postScriptHintData'
p8
(dp9
s."
LayerCount: 2
Fore
SplineSet
370 -14 m 256
 448 -14 479 39 479 95 c 256
 479 148 448 202 370 202 c 256
 292 202 261 148 261 95 c 256
 261 41 292 -14 370 -14 c 256
333 417 m 257
 408 417 l 257
 508 785 744 854 744 1150 c 256
 744 1383 590 1485 409 1485 c 256
 286 1485 188 1445 116 1391 c 257
 144 1273 l 257
 185 1301 285 1360 392 1360 c 256
 521 1360 598 1292 598 1144 c 256
 598 914 339 709 333 417 c 257
EndSplineSet
EndChar

StartChar: quotedbl
Encoding: 34 34 320
Width: 661
VWidth: 0
GlyphClass: 2
Flags: W
PickledData: "(dp1
S'org.robofab.postScriptHintData'
p2
(dp3
sS'com.typemytype.robofont.layerData'
p4
(dp5
s."
LayerCount: 2
Fore
SplineSet
439 1019 m 257
 511 1019 l 257
 547 1521 l 257
 385 1521 l 257
 439 1019 l 257
166 1019 m 257
 238 1019 l 257
 273 1521 l 257
 112 1521 l 257
 166 1019 l 257
EndSplineSet
EndChar

StartChar: quotedblbase
Encoding: 8222 8222 321
Width: 713
VWidth: 0
GlyphClass: 2
Flags: W
PickledData: "(dp1
S'org.robofab.postScriptHintData'
p2
(dp3
s."
LayerCount: 2
Fore
SplineSet
393 -296 m 257
 486 -296 l 257
 593 166 l 257
 445 166 l 257
 393 -296 l 257
110 -296 m 257
 206 -296 l 257
 308 166 l 257
 165 166 l 257
 110 -296 l 257
EndSplineSet
EndChar

StartChar: quotedblleft
Encoding: 8220 8220 322
Width: 888
VWidth: 0
GlyphClass: 2
Flags: W
PickledData: "(dp1
S'org.robofab.postScriptHintData'
p2
(dp3
sS'com.typemytype.robofont.layerData'
p4
(dp5
s."
LayerCount: 2
Fore
SplineSet
504 1016 m 257
 669 1016 l 257
 718 1489 l 257
 610 1489 l 257
 504 1016 l 257
170 1016 m 257
 335 1016 l 257
 384 1489 l 257
 276 1489 l 257
 170 1016 l 257
EndSplineSet
EndChar

StartChar: quotedblright
Encoding: 8221 8221 323
Width: 888
VWidth: 0
GlyphClass: 2
Flags: W
PickledData: "(dp1
S'org.robofab.postScriptHintData'
p2
(dp3
sS'com.typemytype.robofont.layerData'
p4
(dp5
s."
LayerCount: 2
Fore
SplineSet
170 1016 m 257
 278 1016 l 257
 384 1489 l 257
 218 1489 l 257
 170 1016 l 257
504 1016 m 257
 612 1016 l 257
 718 1489 l 257
 553 1489 l 257
 504 1016 l 257
EndSplineSet
EndChar

StartChar: quoteleft
Encoding: 8216 8216 324
Width: 524
VWidth: 0
GlyphClass: 2
Flags: W
PickledData: "(dp1
S'org.robofab.postScriptHintData'
p2
(dp3
sS'com.typemytype.robofont.layerData'
p4
(dp5
s."
LayerCount: 2
Fore
SplineSet
384 1489 m 257
 276 1489 l 257
 170 1016 l 257
 335 1016 l 257
 384 1489 l 257
EndSplineSet
EndChar

StartChar: quoteright
Encoding: 8217 8217 325
Width: 524
VWidth: 0
GlyphClass: 2
Flags: W
PickledData: "(dp1
S'org.robofab.postScriptHintData'
p2
(dp3
sS'com.typemytype.robofont.layerData'
p4
(dp5
s."
LayerCount: 2
Fore
SplineSet
170 1016 m 257
 278 1016 l 257
 384 1489 l 257
 218 1489 l 257
 170 1016 l 257
EndSplineSet
EndChar

StartChar: quotesinglbase
Encoding: 8218 8218 326
Width: 442
VWidth: 0
GlyphClass: 2
Flags: W
PickledData: "(dp1
S'org.robofab.postScriptHintData'
p2
(dp3
s."
LayerCount: 2
Fore
SplineSet
97 -296 m 257
 196 -296 l 257
 306 166 l 257
 157 166 l 257
 97 -296 l 257
EndSplineSet
EndChar

StartChar: quotesingle
Encoding: 39 39 327
Width: 358
VWidth: 0
GlyphClass: 2
Flags: W
PickledData: "(dp1
S'org.robofab.postScriptHintData'
p2
(dp3
s."
LayerCount: 2
Fore
SplineSet
129 970 m 257
 219 970 l 257
 243 1490 l 257
 93 1490 l 257
 129 970 l 257
EndSplineSet
EndChar

StartChar: r
Encoding: 114 114 328
Width: 768
VWidth: 0
GlyphClass: 2
Flags: W
PickledData: "(dp1
S'org.pippin.gimp.org.kernagic'
p2
(dp3
S'lstem'
p4
I0
sS'rstem'
p5
I352
ssS'com.fontlab.hintData'
p6
(dp7
S'vhints'
p8
((dp9
S'position'
p10
I193
sS'width'
p11
I122
s(dp12
g10
I193
sg11
I92
stp13
sS'hhints'
p14
((dp15
g10
I974
sg11
I94
stp16
ssS'com.typemytype.robofont.layerData'
p17
(dp18
sS'org.robofab.postScriptHintData'
p19
(dp20
s."
HStem: 974 94
VStem: 193 122 193 92
AnchorPoint: "top" 460 1082 basechar 0
AnchorPoint: "bot" 276 0 basechar 0
LayerCount: 2
Fore
SplineSet
174 0 m 257
 323 0 l 257
 323 620 l 258
 323 811 433 973 651 973 c 256
 654 973 690 972 694 971 c 257
 706 1091 l 257
 684 1095 661 1096 630 1096 c 256
 503 1096 384 1035 308 846 c 257
 291 1082 l 257
 174 1082 l 257
 174 0 l 257
EndSplineSet
EndChar

StartChar: radical
Encoding: 8730 8730 330
Width: 1157
VWidth: 0
GlyphClass: 2
Flags: W
PickledData: "(dp1
S'org.pippin.gimp.org.kernagic'
p2
(dp3
S'lstem'
p4
I0
sS'rstem'
p5
I0
ssS'com.typemytype.robofont.layerData'
p6
(dp7
S'b'
(dp8
S'name'
p9
S'radical'
p10
sS'lib'
p11
(dp12
sS'unicodes'
p13
(tsS'width'
p14
I1136
sS'contours'
p15
(tsS'components'
p16
(tsS'anchors'
p17
(tsssS'org.robofab.postScriptHintData'
p18
(dp19
s."
LayerCount: 2
Fore
SplineSet
1009 1709 m 257
 902 1262 714 493 609 47 c 257
 519 335 412 606 314 886 c 257
 63 830 l 257
 77 722 l 257
 224 753 l 257
 558 -162 l 257
 680 -162 l 257
 1115 1709 l 257
 1009 1709 l 257
EndSplineSet
EndChar

StartChar: registered
Encoding: 174 174 333
Width: 1872
VWidth: 0
GlyphClass: 2
Flags: W
PickledData: "(dp1
S'org.pippin.gimp.org.kernagic'
p2
(dp3
S'lstem'
p4
I0
sS'rstem'
p5
I0
ssS'com.typemytype.robofont.layerData'
p6
(dp7
sS'org.robofab.postScriptHintData'
p8
(dp9
s."
LayerCount: 2
Fore
SplineSet
933 -25 m 256
 1307 -25 1691 228 1691 735 c 256
 1691 1242 1307 1496 933 1496 c 256
 560 1496 178 1242 178 735 c 256
 178 228 560 -25 933 -25 c 256
933 54 m 256
 604 54 278 283 278 735 c 256
 278 1187 604 1416 933 1416 c 256
 1262 1416 1592 1186 1592 735 c 256
 1592 283 1262 54 933 54 c 256
746 830 m 257
 746 1133 l 257
 946 1133 l 258
 1110 1133 1169 1113 1169 984 c 256
 1169 877 1130 830 987 830 c 258
 746 830 l 257
640 298 m 257
 745 298 l 257
 745 737 l 257
 974 737 l 257
 980 730 1185 298 1185 298 c 257
 1302 298 l 257
 1302 298 1089 736 1078 751 c 257
 1208 762 1270 852 1270 988 c 256
 1270 1150 1197 1226 959 1226 c 258
 640 1226 l 257
 640 298 l 257
EndSplineSet
EndChar

StartChar: ring
Encoding: 730 730 334
Width: 685
VWidth: 0
GlyphClass: 4
Flags: W
PickledData: "(dp1
S'org.robofab.postScriptHintData'
p2
(dp3
sS'com.typemytype.robofont.layerData'
p4
(dp5
s."
AnchorPoint: "top" 334 1062 mark 0
LayerCount: 2
Fore
SplineSet
335 1199 m 256
 440 1199 519 1278 519 1378 c 256
 519 1477 440 1554 335 1554 c 256
 229 1554 152 1477 152 1378 c 256
 152 1278 230 1199 335 1199 c 256
335 1274 m 256
 277 1274 237 1320 237 1376 c 256
 237 1431 278 1477 335 1477 c 256
 391 1477 434 1431 434 1376 c 256
 434 1321 391 1274 335 1274 c 256
EndSplineSet
EndChar

StartChar: s
Encoding: 115 115 335
Width: 963
VWidth: 0
GlyphClass: 2
Flags: W
PickledData: "(dp1
S'org.pippin.gimp.org.kernagic'
p2
(dp3
S'lstem'
p4
I168
sS'rstem'
p5
I620
ssS'org.robofab.postScriptHintData'
p6
(dp7
sS'com.typemytype.robofont.guides'
p8
((dp9
S'y'
I381
sS'x'
I77
sS'magnetic'
p10
I5
sS'angle'
p11
F90
sS'isGlobal'
p12
I00
stp13
sS'com.typemytype.robofont.layerData'
p14
(dp15
sS'com.fontlab.hintData'
p16
(dp17
S'vhints'
p18
((dp19
S'position'
p20
I142
sS'width'
p21
I107
s(dp22
g20
I738
sg21
I104
stp23
sS'hhints'
p24
((dp25
g20
I-19
sg21
I92
s(dp26
g20
I982
sg21
I92
stp27
ss."
HStem: -19 92 982 92
VStem: 142 107 738 104
AnchorPoint: "top" 506 1083 basechar 0
AnchorPoint: "bot" 475 1 basechar 0
LayerCount: 2
Fore
SplineSet
733 300 m 256
 733 158 651 92 498 92 c 256
 395 92 276 122 191 210 c 257
 177 210 l 257
 102 130 l 257
 192 31 342 -20 496 -20 c 256
 701 -20 868 73 868 300 c 256
 868 430 826 529 573 610 c 257
 446 648 l 257
 296 695 263 738 263 823 c 256
 263 929 345 990 501 990 c 256
 613 990 700 949 750 897 c 257
 760 897 l 257
 839 969 l 257
 778 1045 663 1105 503 1105 c 256
 269 1105 120 999 120 821 c 256
 120 692 159 604 406 527 c 257
 536 488 l 257
 706 435 733 384 733 300 c 256
EndSplineSet
EndChar

StartChar: section
Encoding: 167 167 341
Width: 1071
VWidth: 0
GlyphClass: 2
Flags: W
PickledData: "(dp1
S'org.pippin.gimp.org.kernagic'
p2
(dp3
S'lstem'
p4
I0
sS'rstem'
p5
I0
ssS'com.typemytype.robofont.layerData'
p6
(dp7
S'b'
(dp8
S'name'
p9
S'section'
p10
sS'lib'
p11
(dp12
sS'unicodes'
p13
(tsS'width'
p14
I1079
sS'contours'
p15
(tsS'components'
p16
(tsS'anchors'
p17
(tsssS'org.robofab.postScriptHintData'
p18
(dp19
s."
LayerCount: 2
Fore
SplineSet
686 548 m 257
 662 559 610 578 495 613 c 256
 341 665 306 688 306 780 c 256
 306 851 339 895 391 923 c 257
 399 919 433 906 535 873 c 256
 689 822 752 770 752 688 c 256
 752 618 719 578 686 548 c 257
515 -34 m 256
 710 -34 880 55 880 270 c 256
 880 362 854 431 791 483 c 257
 847 531 882 594 882 685 c 256
 882 839 819 913 587 989 c 256
 349 1068 306 1091 306 1194 c 256
 306 1301 378 1364 540 1364 c 256
 646 1364 743 1328 806 1297 c 257
 841 1405 l 257
 750 1448 645 1476 525 1476 c 256
 304 1476 170 1363 170 1191 c 256
 170 1104 197 1037 272 983 c 257
 209 934 171 864 171 777 c 256
 171 642 230 568 434 501 c 256
 705 413 749 358 749 272 c 256
 749 142 659 78 525 78 c 256
 412 78 307 108 192 164 c 257
 188 42 l 257
 289 -6 406 -34 515 -34 c 256
EndSplineSet
EndChar

StartChar: semicolon
Encoding: 59 59 342
Width: 658
VWidth: 0
GlyphClass: 2
Flags: W
PickledData: "(dp1
S'org.pippin.gimp.org.kernagic'
p2
(dp3
S'lstem'
p4
I0
sS'rstem'
p5
I0
ssS'com.typemytype.robofont.layerData'
p6
(dp7
sS'org.robofab.postScriptHintData'
p8
(dp9
s."
LayerCount: 2
Fore
SplineSet
343 846 m 256
 422 846 452 903 452 960 c 256
 452 1014 422 1073 343 1073 c 256
 263 1073 231 1014 231 960 c 256
 231 903 265 846 343 846 c 256
236 -299 m 257
 320 -299 l 257
 320 -299 429 145 429 155 c 258
 429 227 l 257
 269 227 l 257
 269 202 236 -299 236 -299 c 257
EndSplineSet
EndChar

StartChar: seven
Encoding: 55 55 343
Width: 1238
VWidth: 0
GlyphClass: 2
Flags: W
PickledData: "(dp1
S'org.pippin.gimp.org.kernagic'
p2
(dp3
S'lstem'
p4
I0
sS'rstem'
p5
I0
ssS'com.typemytype.robofont.layerData'
p6
(dp7
sS'org.robofab.postScriptHintData'
p8
(dp9
s."
LayerCount: 2
Fore
SplineSet
355 0 m 257
 502 0 l 257
 1055 1346 l 257
 1055 1456 l 257
 177 1456 l 257
 199 1333 l 257
 901 1333 l 257
 355 0 l 257
EndSplineSet
EndChar

StartChar: six
Encoding: 54 54 344
Width: 1238
VWidth: 0
GlyphClass: 2
Flags: W
PickledData: "(dp1
S'org.pippin.gimp.org.kernagic'
p2
(dp3
S'lstem'
p4
I0
sS'rstem'
p5
I0
ssS'com.typemytype.robofont.layerData'
p6
(dp7
sS'org.robofab.postScriptHintData'
p8
(dp9
s."
LayerCount: 2
Fore
SplineSet
640 102 m 256
 430 102 321 259 321 433 c 256
 321 687 523 760 647 760 c 256
 847 760 961 623 961 440 c 256
 961 263 849 102 640 102 c 256
643 -20 m 256
 930 -20 1106 188 1106 440 c 256
 1106 705 922 880 695 880 c 256
 569 880 474 829 406 769 c 257
 563 993 723 1214 882 1436 c 257
 882 1456 l 257
 727 1456 l 257
 401 1004 l 258
 260 807 178 665 178 443 c 256
 178 206 341 -20 643 -20 c 256
EndSplineSet
EndChar

StartChar: slash
Encoding: 47 47 345
Width: 976
VWidth: 0
GlyphClass: 2
Flags: W
PickledData: "(dp1
S'org.pippin.gimp.org.kernagic'
p2
(dp3
S'lstem'
p4
I0
sS'rstem'
p5
I0
ssS'com.typemytype.robofont.layerData'
p6
(dp7
S'b'
(dp8
S'name'
p9
S'slash'
p10
sS'lib'
p11
(dp12
sS'unicodes'
p13
(tsS'width'
p14
I965
sS'contours'
p15
(tsS'components'
p16
(tsS'anchors'
p17
(tsssS'org.robofab.postScriptHintData'
p18
(dp19
s."
LayerCount: 2
Fore
SplineSet
134 -144 m 257
 258 -144 l 257
 895 1560 l 257
 767 1560 l 257
 134 -144 l 257
EndSplineSet
EndChar

StartChar: slashbar
Encoding: 65542 -1 346
Width: 846
VWidth: 0
GlyphClass: 4
Flags: W
PickledData: "(dp1
S'org.pippin.gimp.org.kernagic'
p2
(dp3
S'lstem'
p4
I0
sS'rstem'
p5
I0
ssS'com.typemytype.robofont.layerData'
p6
(dp7
S'b'
(dp8
S'name'
p9
S'slashbar'
p10
sS'lib'
p11
(dp12
sS'unicodes'
p13
(tsS'width'
p14
I908
sS'contours'
p15
(tsS'components'
p16
(tsS'anchors'
p17
(tsssS'org.robofab.postScriptHintData'
p18
(dp19
s."
LayerCount: 2
Fore
SplineSet
164 518 m 257
 729 852 l 257
 729 966 l 257
 164 632 l 257
 164 518 l 257
EndSplineSet
EndChar

StartChar: sterling
Encoding: 163 163 348
Width: 1157
VWidth: 0
GlyphClass: 2
Flags: W
PickledData: "(dp1
S'org.pippin.gimp.org.kernagic'
p2
(dp3
S'lstem'
p4
I0
sS'rstem'
p5
I0
ssS'com.typemytype.robofont.layerData'
p6
(dp7
S'b'
(dp8
S'name'
p9
S'sterling'
p10
sS'lib'
p11
(dp12
sS'unicodes'
p13
(tsS'width'
p14
I1136
sS'contours'
p15
((dp16
S'points'
p17
((dp18
S'segmentType'
p19
S'line'
p20
sS'x'
I20
sS'smooth'
p21
I00
sS'y'
I0
s(dp22
g19
S'line'
p23
sS'x'
I8
sg21
I00
sS'y'
I115
s(dp24
g19
S'line'
p25
sS'x'
I180
sg21
I00
sS'y'
I132
s(dp26
g19
S'line'
p27
sS'x'
I180
sg21
I00
sS'y'
I683
s(dp28
g19
S'line'
p29
sS'x'
I8
sg21
I00
sS'y'
I683
s(dp30
g19
S'line'
p31
sS'x'
I8
sg21
I00
sS'y'
I806
s(dp32
g19
S'line'
p33
sS'x'
I180
sg21
I00
sS'y'
I806
s(dp34
g19
S'line'
p35
sS'x'
I180
sg21
I01
sS'y'
I920
s(dp36
S'y'
I1183
sS'x'
I180
sg21
I00
s(dp37
S'y'
I1476
sS'x'
I245
sg21
I00
s(dp38
g19
S'curve'
p39
sS'x'
I598
sg21
I01
sS'y'
I1476
s(dp40
S'y'
I1476
sS'x'
I742
sg21
I00
s(dp41
S'y'
I1421
sS'x'
I854
sg21
I00
s(dp42
g19
S'curve'
p43
sS'x'
I939
sg21
I00
sS'y'
I1347
s(dp44
g19
S'line'
p45
sS'x'
I871
sg21
I00
sS'y'
I1229
s(dp46
S'y'
I1297
sS'x'
I785
sg21
I00
s(dp47
S'y'
I1334
sS'x'
I700
sg21
I00
s(dp48
g19
S'curve'
p49
sS'x'
I598
sg21
I01
sS'y'
I1334
s(dp50
S'y'
I1334
sS'x'
I397
sg21
I00
s(dp51
S'y'
I1179
sS'x'
I356
sg21
I00
s(dp52
g19
S'curve'
p53
sS'x'
I356
sg21
I01
sS'y'
I949
s(dp54
g19
S'line'
p55
sS'x'
I356
sg21
I00
sS'y'
I806
s(dp56
g19
S'line'
p57
sS'x'
I739
sg21
I00
sS'y'
I806
s(dp58
g19
S'line'
p59
sS'x'
I739
sg21
I00
sS'y'
I683
s(dp60
g19
S'line'
p61
sS'x'
I356
sg21
I00
sS'y'
I683
s(dp62
g19
S'line'
p63
sS'x'
I356
sg21
I00
sS'y'
I134
s(dp64
g19
S'line'
p65
sS'x'
I953
sg21
I00
sS'y'
I134
s(dp66
g19
S'line'
p67
sS'x'
I940
sg21
I00
sS'y'
I0
stp68
stp69
sS'components'
p70
(tsS'anchors'
p71
(tsssS'org.robofab.postScriptHintData'
p72
(dp73
s."
LayerCount: 2
Fore
SplineSet
418 947 m 258
 418 1208 502 1349 686 1349 c 256
 800 1349 870 1302 943 1241 c 257
 958 1241 l 257
 1015 1341 l 257
 946 1408 844 1476 676 1476 c 256
 335 1476 263 1204 263 935 c 258
 263 795 l 257
 87 795 l 257
 87 685 l 257
 263 685 l 257
 263 118 l 257
 86 102 l 257
 98 0 l 257
 1013 0 l 257
 1025 120 l 257
 418 120 l 257
 418 685 l 257
 811 685 l 257
 811 795 l 257
 418 795 l 257
 418 947 l 258
EndSplineSet
EndChar

StartChar: t
Encoding: 116 116 350
Width: 782
VWidth: 0
GlyphClass: 2
Flags: W
PickledData: "(dp1
S'org.pippin.gimp.org.kernagic'
p2
(dp3
S'lstem'
p4
I189
sS'rstem'
p5
I480
ssS'com.fontlab.hintData'
p6
(dp7
S'vhints'
p8
((dp9
S'position'
p10
I244
sS'width'
p11
I122
s(dp12
g10
I286
sg11
I80
stp13
sS'hhints'
p14
((dp15
g10
I-11
sg11
I83
stp16
ssS'com.typemytype.robofont.layerData'
p17
(dp18
sS'org.robofab.postScriptHintData'
p19
(dp20
s."
HStem: -11 83
VStem: 244 122 286 80
AnchorPoint: "top" 315 1358 basechar 0
AnchorPoint: "bot" 463 0 basechar 0
LayerCount: 2
Fore
SplineSet
563 -8 m 256
 583 -8 665 -6 665 -6 c 257
 671 99 l 257
 671 99 575 100 560 100 c 256
 407 105 385 138 385 312 c 258
 385 990 l 257
 681 990 l 257
 681 1082 l 257
 385 1082 l 257
 385 1378 l 257
 263 1368 l 257
 238 1082 l 257
 71 1073 l 257
 69 990 l 257
 235 990 l 257
 235 311 l 258
 235 67 296 -8 563 -8 c 256
EndSplineSet
EndChar

StartChar: thorn
Encoding: 254 254 355
Width: 1227
VWidth: 0
GlyphClass: 2
Flags: W
PickledData: "(dp1
S'org.pippin.gimp.org.kernagic'
p2
(dp3
S'lstem'
p4
I0
sS'rstem'
p5
I0
ssS'com.typemytype.robofont.layerData'
p6
(dp7
S'b'
(dp8
S'name'
p9
S'thorn'
p10
sS'lib'
p11
(dp12
sS'unicodes'
p13
(tsS'width'
p14
I1221
sS'contours'
p15
(tsS'components'
p16
(tsS'anchors'
p17
(tsssS'org.robofab.postScriptHintData'
p18
(dp19
s."
LayerCount: 2
Fore
SplineSet
120 311 m 257
 120 -474 l 257
 264 -474 l 257
 264 311 l 257
 120 311 l 257
EndSplineSet
Refer: 155 98 N 1 0 0 1 -52 0 2
EndChar

StartChar: three
Encoding: 51 51 356
Width: 1238
VWidth: 0
GlyphClass: 2
Flags: W
PickledData: "(dp1
S'org.pippin.gimp.org.kernagic'
p2
(dp3
S'lstem'
p4
I0
sS'rstem'
p5
I0
ssS'com.typemytype.robofont.layerData'
p6
(dp7
sS'org.robofab.postScriptHintData'
p8
(dp9
s."
LayerCount: 2
Fore
SplineSet
612 -20 m 256
 918 -20 1074 166 1074 383 c 256
 1074 595 959 737 758 773 c 257
 934 813 1034 926 1034 1096 c 258
 1034 1104 l 258
 1034 1330 876 1476 618 1476 c 256
 491 1476 279 1439 173 1253 c 257
 261 1180 l 257
 277 1180 l 257
 362 1301 481 1348 609 1348 c 258
 621 1348 l 258
 791 1348 890 1259 890 1103 c 258
 890 1094 l 258
 890 864 675 835 507 833 c 257
 438 833 l 257
 460 703 l 257
 506 703 l 257
 768 702 929 636 929 386 c 256
 929 194 792 108 613 108 c 256
 503 108 362 143 284 259 c 257
 272 259 l 257
 183 186 l 257
 275 32 456 -20 612 -20 c 256
EndSplineSet
EndChar

StartChar: threequarters
Encoding: 190 190 357
Width: 1744
VWidth: 0
GlyphClass: 3
Flags: W
PickledData: "(dp1
S'org.pippin.gimp.org.kernagic'
p2
(dp3
S'lstem'
p4
I0
sS'rstem'
p5
I0
ssS'com.typemytype.robofont.layerData'
p6
(dp7
sS'org.robofab.postScriptHintData'
p8
(dp9
s."
LayerCount: 2
Fore
SplineSet
1151 292 m 257
 1426 700 l 257
 1426 292 l 257
 1151 292 l 257
427 0 m 257
 548 0 l 257
 1448 1486 l 257
 1328 1486 l 257
 427 0 l 257
1427 0 m 257
 1543 0 l 257
 1543 197 l 257
 1666 197 l 257
 1658 292 l 257
 1544 292 l 257
 1544 851 l 257
 1417 851 l 257
 1024 280 l 257
 1024 197 l 257
 1427 197 l 257
 1427 0 l 257
354 608 m 256
 498 608 630 688 630 862 c 256
 630 962 569 1041 465 1070 c 257
 568 1094 611 1191 611 1268 c 256
 611 1416 493 1484 361 1484 c 256
 278 1484 189 1456 122 1403 c 257
 170 1318 l 257
 235 1359 301 1380 357 1380 c 256
 436 1380 493 1338 493 1253 c 256
 493 1167 429 1115 327 1115 c 258
 239 1115 l 257
 239 1012 l 257
 330 1012 l 258
 449 1012 509 959 509 858 c 256
 509 754 441 712 355 712 c 256
 294 712 224 734 166 770 c 257
 125 681 l 257
 190 634 274 608 354 608 c 256
EndSplineSet
Ligature2: "fracDiagonalFractionslookup11 subtable" three slash four
EndChar

StartChar: tilde
Encoding: 732 732 358
Width: 995
VWidth: 0
GlyphClass: 4
Flags: W
PickledData: "(dp1
S'org.robofab.postScriptHintData'
p2
(dp3
sS'com.fontlab.hintData'
p4
(dp5
S'vhints'
p6
((dp7
S'position'
p8
I169
sS'width'
p9
I63
s(dp10
g8
I657
sg9
I67
stp11
sS'hhints'
p12
((dp13
g8
I1301
sg9
I88
s(dp14
g8
I1400
sg9
I79
stp15
ssS'com.typemytype.robofont.layerData'
p16
(dp17
s."
HStem: 1301 88 1400 79
VStem: 169 63 657 67
AnchorPoint: "top" 497 1062 mark 0
LayerCount: 2
Fore
SplineSet
179 1304 m 257
 259 1304 l 257
 266 1374 291 1404 327 1404 c 256
 401 1404 525 1304 628 1304 c 256
 705 1304 767 1359 767 1502 c 257
 684 1502 l 257
 676 1436 655 1414 622 1414 c 256
 558 1414 452 1503 334 1503 c 256
 245 1503 179 1446 179 1304 c 257
EndSplineSet
EndChar

StartChar: trademark
Encoding: 8482 8482 359
Width: 2151
VWidth: 0
GlyphClass: 2
Flags: W
PickledData: "(dp1
S'org.robofab.postScriptHintData'
p2
(dp3
sS'com.typemytype.robofont.layerData'
p4
(dp5
S'b'
(dp6
S'name'
p7
S'trademark'
p8
sS'lib'
p9
(dp10
sS'unicodes'
p11
(tsS'width'
p12
I2216
sS'contours'
p13
(tsS'components'
p14
(tsS'anchors'
p15
(tsss."
LayerCount: 2
Fore
SplineSet
391 528 m 257
 510 528 l 257
 510 1363 l 257
 821 1363 l 257
 821 1460 l 257
 85 1460 l 257
 85 1363 l 257
 391 1363 l 257
 391 528 l 257
962 528 m 257
 1068 528 l 257
 1074 1314 l 257
 1395 639 l 257
 1485 639 l 257
 1802 1307 l 257
 1808 528 l 257
 1914 528 l 257
 1898 1460 l 257
 1773 1460 l 257
 1441 766 l 257
 1105 1460 l 257
 978 1460 l 257
 962 528 l 257
EndSplineSet
EndChar

StartChar: two
Encoding: 50 50 360
Width: 1238
VWidth: 0
GlyphClass: 2
Flags: W
PickledData: "(dp1
S'org.pippin.gimp.org.kernagic'
p2
(dp3
S'lstem'
p4
I0
sS'rstem'
p5
I0
ssS'com.typemytype.robofont.layerData'
p6
(dp7
sS'org.robofab.postScriptHintData'
p8
(dp9
s."
LayerCount: 2
Fore
SplineSet
245 1225 m 257
 327 1305 455 1350 577 1350 c 256
 730 1350 896 1275 896 1062 c 256
 896 884 828 821 681 676 c 258
 134 135 l 257
 163 0 l 257
 1021 0 l 257
 1029 128 l 257
 309 128 l 257
 776 581 l 258
 971 770 1041 857 1041 1070 c 256
 1041 1358 794 1476 578 1476 c 256
 418 1476 254 1417 158 1316 c 257
 228 1225 l 257
 245 1225 l 257
EndSplineSet
EndChar

StartChar: u
Encoding: 117 117 361
Width: 1194
VWidth: 0
GlyphClass: 2
Flags: W
PickledData: "(dp1
S'org.pippin.gimp.org.kernagic'
p2
(dp3
S'lstem'
p4
I0
sS'rstem'
p5
I0
ssS'com.fontlab.hintData'
p6
(dp7
S'vhints'
p8
((dp9
S'position'
p10
I162
sS'width'
p11
I166
s(dp12
g10
I862
sg11
I166
stp13
sS'hhints'
p14
((dp15
g10
I-21
sg11
I126
stp16
ssS'com.typemytype.robofont.layerData'
p17
(dp18
sS'org.robofab.postScriptHintData'
p19
(dp20
s."
HStem: -21 126
VStem: 162 166 862 166
AnchorPoint: "top" 609 1083 basechar 0
AnchorPoint: "bot" 563 1 basechar 0
LayerCount: 2
Fore
SplineSet
873 249 m 257
 828 188 738 92 556 92 c 256
 374 92 307 209 307 396 c 258
 307 1082 l 257
 157 1082 l 257
 157 408 l 258
 157 119 291 -20 544 -20 c 256
 705 -20 812 39 884 135 c 257
 893 0 l 257
 1022 0 l 257
 1022 1082 l 257
 873 1082 l 257
 873 249 l 257
EndSplineSet
EndChar

StartChar: underscore
Encoding: 95 95 369
Width: 887
VWidth: 0
GlyphClass: 2
Flags: W
PickledData: "(dp1
S'org.pippin.gimp.org.kernagic'
p2
(dp3
S'lstem'
p4
I0
sS'rstem'
p5
I0
ssS'com.typemytype.robofont.layerData'
p6
(dp7
sS'org.robofab.postScriptHintData'
p8
(dp9
s."
LayerCount: 2
Fore
SplineSet
0 -257 m 257
 887 -257 l 257
 887 -145 l 257
 0 -145 l 257
 0 -257 l 257
EndSplineSet
EndChar

StartChar: uni00AD
Encoding: 173 173 372
Width: 925
VWidth: 0
GlyphClass: 2
Flags: W
PickledData: "(dp1
S'org.robofab.postScriptHintData'
p2
(dp3
s."
LayerCount: 2
Fore
SplineSet
106 446 m 257
 815 446 l 257
 815 567 l 257
 106 567 l 257
 106 446 l 257
EndSplineSet
EndChar

StartChar: uni00B2
Encoding: 178 178 373
Width: 769
VWidth: 0
GlyphClass: 2
Flags: W
PickledData: "(dp1
S'org.robofab.postScriptHintData'
p2
(dp3
sS'com.typemytype.robofont.layerData'
p4
(dp5
s."
LayerCount: 2
Fore
SplineSet
150 661 m 257
 653 661 l 257
 660 754 l 257
 309 754 l 257
 411 855 438 878 510 951 c 256
 609 1052 661 1135 661 1251 c 256
 661 1418 537 1507 395 1507 c 256
 264 1507 167 1460 99 1373 c 257
 156 1298 l 257
 214 1368 287 1409 392 1409 c 256
 487 1409 550 1343 550 1248 c 256
 550 1184 507 1115 427 1025 c 256
 319 905 258 861 150 754 c 257
 150 661 l 257
EndSplineSet
EndChar

StartChar: uni00B3
Encoding: 179 179 374
Width: 874
VWidth: 0
GlyphClass: 2
Flags: W
PickledData: "(dp1
S'org.robofab.postScriptHintData'
p2
(dp3
sS'com.typemytype.robofont.layerData'
p4
(dp5
s."
LayerCount: 2
Fore
SplineSet
438 642 m 256
 585 642 717 720 717 881 c 256
 717 993 646 1068 554 1090 c 257
 647 1112 708 1183 708 1286 c 256
 708 1441 586 1504 450 1504 c 256
 342 1504 239 1470 177 1409 c 257
 224 1338 l 257
 276 1384 345 1414 439 1414 c 256
 534 1414 606 1372 606 1279 c 256
 606 1191 549 1130 426 1130 c 258
 314 1130 l 257
 314 1045 l 257
 425 1045 l 257
 428 1045 l 258
 546 1045 615 979 615 883 c 256
 615 784 536 732 437 732 c 256
 340 732 268 764 222 811 c 257
 174 732 l 257
 235 673 335 642 438 642 c 256
EndSplineSet
EndChar

StartChar: uni00B9
Encoding: 185 185 376
Width: 891
VWidth: 0
GlyphClass: 2
Flags: W
PickledData: "(dp1
S'org.robofab.postScriptHintData'
p2
(dp3
sS'com.typemytype.robofont.layerData'
p4
(dp5
s."
LayerCount: 2
Fore
SplineSet
269 648 m 257
 746 648 l 257
 746 745 l 257
 573 745 l 257
 573 1494 l 257
 473 1494 l 257
 434 1459 321 1408 265 1391 c 257
 265 1292 l 257
 308 1301 412 1343 450 1367 c 257
 450 745 l 257
 269 745 l 257
 269 648 l 257
EndSplineSet
EndChar

StartChar: uni02C9
Encoding: 713 713 445
Width: 600
VWidth: 0
GlyphClass: 4
Flags: W
PickledData: "(dp1
S'org.robofab.postScriptHintData'
p2
(dp3
s."
AnchorPoint: "top" 311 1062 mark 0
LayerCount: 2
Fore
SplineSet
6 1307 m 257
 590 1307 l 257
 590 1425 l 257
 6 1425 l 257
 6 1307 l 257
EndSplineSet
EndChar

StartChar: uni0307
Encoding: 775 775 446
Width: 386
VWidth: 0
GlyphClass: 4
Flags: W
PickledData: "(dp1
S'org.robofab.postScriptHintData'
p2
(dp3
sS'com.typemytype.robofont.layerData'
p4
(dp5
s."
LayerCount: 2
Fore
SplineSet
309 1451 m 256
 309 1518 271 1556 199 1556 c 256
 127 1556 88 1518 88 1451 c 256
 88 1383 127 1344 199 1344 c 256
 271 1344 309 1383 309 1451 c 256
EndSplineSet
EndChar

StartChar: uni2074
Encoding: 8308 8308 465
Width: 705
VWidth: 0
GlyphClass: 2
Flags: W
PickledData: "(dp1
S'org.robofab.postScriptHintData'
p2
(dp3
sS'com.typemytype.robofont.layerData'
p4
(dp5
s."
LayerCount: 2
Fore
SplineSet
180 934 m 257
 427 1352 l 257
 425 934 l 257
 180 934 l 257
425 632 m 257
 537 632 l 257
 536 846 l 257
 656 846 l 257
 660 934 l 257
 538 934 l 257
 538 1497 l 257
 418 1497 l 257
 64 940 l 257
 64 846 l 257
 425 846 l 257
 425 632 l 257
EndSplineSet
EndChar

StartChar: afii61289
Encoding: 8467 8467 466
Width: 1181
VWidth: 0
GlyphClass: 2
Flags: W
PickledData: "(dp1
S'org.robofab.postScriptHintData'
p2
(dp3
s."
LayerCount: 2
Fore
SplineSet
587 752 m 257
 725 1354 l 258
 759 1501 840 1556 916 1556 c 256
 1002 1556 1083 1485 1083 1396 c 256
 1083 1327 974 1100 800 943 c 258
 587 752 l 257
308 253 m 256
 308 59 402 -20 549 -20 c 256
 766 -20 910 98 910 98 c 257
 887 200 l 257
 785 142 696 108 614 108 c 256
 521 108 482 157 482 252 c 256
 482 297 491 352 507 417 c 258
 556 619 l 257
 853 865 l 258
 1094 1064 1187 1187 1187 1397 c 256
 1187 1597 1050 1683 907 1683 c 256
 781 1683 652 1623 590 1396 c 258
 383 631 l 257
 83 404 l 257
 125 334 l 257
 348 501 l 257
 321 404 308 322 308 253 c 256
EndSplineSet
EndChar

StartChar: Delta
Encoding: 8710 8710 468
Width: 1294
VWidth: 0
GlyphClass: 2
Flags: W
PickledData: "(dp1
S'org.pippin.gimp.org.kernagic'
p2
(dp3
S'lstem'
p4
I0
sS'rstem'
p5
I0
ssS'com.typemytype.robofont.layerData'
p6
(dp7
S'b'
(dp8
S'name'
p9
S'uni2206'
p10
sS'lib'
p11
(dp12
sS'unicodes'
p13
(tsS'width'
p14
I1278
sS'contours'
p15
(tsS'components'
p16
(tsS'anchors'
p17
(tsssS'org.robofab.postScriptHintData'
p18
(dp19
s."
LayerCount: 2
Fore
SplineSet
676 1216 m 257
 1044 158 l 257
 246 158 l 257
 610 1216 l 257
 642 1334 l 257
 676 1216 l 257
565 1530 m 257
 73 85 l 257
 73 0 l 257
 1222 0 l 257
 1222 85 l 257
 731 1530 l 257
 565 1530 l 257
EndSplineSet
EndChar

StartChar: v
Encoding: 118 118 479
Width: 1070
VWidth: 0
GlyphClass: 2
Flags: W
PickledData: "(dp1
S'org.pippin.gimp.org.kernagic'
p2
(dp3
S'lstem'
p4
I0
sS'rstem'
p5
I0
ssS'com.typemytype.robofont.guides'
p6
((dp7
S'y'
I552
sS'x'
I438
sS'magnetic'
p8
I5
sS'angle'
p9
I0
sS'isGlobal'
p10
I00
stp11
sS'com.typemytype.robofont.layerData'
p12
(dp13
sS'org.robofab.postScriptHintData'
p14
(dp15
s."
LayerCount: 2
Fore
SplineSet
462 0 m 257
 616 0 l 257
 1008 1082 l 257
 858 1082 l 257
 753 778 648 474 540 172 c 257
 430 472 324 777 218 1082 c 257
 66 1082 l 257
 462 0 l 257
EndSplineSet
EndChar

StartChar: w
Encoding: 119 119 480
Width: 1506
VWidth: 0
GlyphClass: 2
Flags: W
PickledData: "(dp1
S'org.pippin.gimp.org.kernagic'
p2
(dp3
S'lstem'
p4
I0
sS'rstem'
p5
I0
ssS'com.typemytype.robofont.layerData'
p6
(dp7
sS'org.robofab.postScriptHintData'
p8
(dp9
s."
AnchorPoint: "top" 756 1082 basechar 0
LayerCount: 2
Fore
SplineSet
757 938 m 257
 1057 0 l 257
 1188 0 l 257
 1472 1082 l 257
 1335 1082 l 257
 1120 201 l 257
 834 1076 l 257
 673 1076 l 257
 403 203 l 257
 174 1082 l 257
 34 1082 l 257
 329 0 l 257
 461 0 l 257
 757 938 l 257
EndSplineSet
EndChar

StartChar: x
Encoding: 120 120 485
Width: 1045
VWidth: 0
GlyphClass: 2
Flags: W
PickledData: "(dp1
S'org.pippin.gimp.org.kernagic'
p2
(dp3
S'lstem'
p4
I0
sS'rstem'
p5
I0
ssS'com.fontlab.hintData'
p6
(dp7
S'hhints'
p8
((dp9
S'position'
p10
I0
sS'width'
p11
I22
s(dp12
g10
I1034
sg11
I21
stp13
ssS'com.typemytype.robofont.layerData'
p14
(dp15
sS'org.robofab.postScriptHintData'
p16
(dp17
s."
HStem: 0 22 1034 21
LayerCount: 2
Fore
SplineSet
612 549 m 257
 985 1082 l 257
 830 1082 l 257
 539 655 l 257
 248 1082 l 257
 80 1082 l 257
 444 550 l 257
 55 0 l 257
 209 0 l 257
 516 443 l 257
 819 0 l 257
 986 0 l 257
 612 549 l 257
EndSplineSet
EndChar

StartChar: y
Encoding: 121 121 486
Width: 1118
VWidth: 0
GlyphClass: 2
Flags: W
PickledData: "(dp1
S'org.pippin.gimp.org.kernagic'
p2
(dp3
S'lstem'
p4
I0
sS'rstem'
p5
I0
ssS'com.typemytype.robofont.layerData'
p6
(dp7
sS'org.robofab.postScriptHintData'
p8
(dp9
s."
AnchorPoint: "top" 580 1082 basechar 0
LayerCount: 2
Fore
SplineSet
1062 1082 m 257
 918 1082 l 257
 577 208 l 257
 210 1082 l 257
 52 1082 l 257
 504 37 l 257
 348 -375 l 257
 477 -408 l 257
 1062 1082 l 257
EndSplineSet
EndChar

StartChar: yen
Encoding: 165 165 490
Width: 1337
VWidth: 0
GlyphClass: 2
Flags: W
PickledData: "(dp1
S'org.pippin.gimp.org.kernagic'
p2
(dp3
S'lstem'
p4
I0
sS'rstem'
p5
I0
ssS'com.typemytype.robofont.layerData'
p6
(dp7
S'b'
(dp8
S'name'
p9
S'yen'
p10
sS'lib'
p11
(dp12
sS'unicodes'
p13
(tsS'width'
p14
I1366
sS'contours'
p15
(tsS'components'
p16
(tsS'anchors'
p17
(tsssS'org.robofab.postScriptHintData'
p18
(dp19
s."
LayerCount: 2
Fore
SplineSet
263 531 m 257
 1057 531 l 257
 1057 629 l 257
 263 629 l 257
 263 531 l 257
263 272 m 257
 1057 272 l 257
 1057 370 l 257
 263 370 l 257
 263 272 l 257
EndSplineSet
Refer: 124 89 N 1 0 0 1 0 0 2
EndChar

StartChar: z
Encoding: 122 122 492
Width: 991
VWidth: 0
GlyphClass: 2
Flags: W
PickledData: "(dp1
S'org.pippin.gimp.org.kernagic'
p2
(dp3
S'lstem'
p4
I0
sS'rstem'
p5
I0
ssS'com.typemytype.robofont.layerData'
p6
(dp7
sS'org.robofab.postScriptHintData'
p8
(dp9
s."
AnchorPoint: "top" 506 1082 basechar 0
AnchorPoint: "bot" 472 0 basechar 0
LayerCount: 2
Fore
SplineSet
129 1082 m 257
 134 972 l 257
 713 972 l 257
 108 101 l 257
 108 0 l 257
 874 0 l 257
 867 113 l 257
 268 113 l 257
 866 977 l 257
 866 1082 l 257
 129 1082 l 257
EndSplineSet
EndChar

StartChar: zero
Encoding: 48 48 496
Width: 1245
VWidth: 0
GlyphClass: 2
Flags: W
PickledData: "(dp1
S'org.pippin.gimp.org.kernagic'
p2
(dp3
S'lstem'
p4
I0
sS'rstem'
p5
I0
ssS'com.typemytype.robofont.layerData'
p6
(dp7
S'b'
(dp8
S'name'
p9
S'zero'
p10
sS'lib'
p11
(dp12
sS'unicodes'
p13
(tsS'width'
p14
I1248
sS'contours'
p15
(tsS'components'
p16
(tsS'anchors'
p17
(tsssS'org.robofab.postScriptHintData'
p18
(dp19
s."
LayerCount: 2
Fore
SplineSet
627 -20 m 256
 964 -20 1105 257 1105 708 c 256
 1105 1184 946 1476 627 1476 c 256
 308 1476 138 1182 138 708 c 256
 138 257 290 -20 627 -20 c 256
627 110 m 256
 424 110 288 266 288 712 c 258
 288 721 l 258
 288 1139 425 1347 627 1347 c 256
 830 1347 956 1169 956 713 c 256
 956 267 830 110 627 110 c 256
EndSplineSet
EndChar

StartChar: Sigma
Encoding: 931 931 497
Width: 1113
VWidth: 0
GlyphClass: 2
Flags: W
LayerCount: 2
Fore
SplineSet
101 1477 m 257
 101 1388 l 257
 611 622 l 257
 78 -144 l 257
 78 -229 l 257
 1061 -229 l 257
 1061 -85 l 257
 281 -85 l 257
 797 618 l 257
 299 1343 l 257
 1016 1343 l 257
 1016 1477 l 257
 101 1477 l 257
EndSplineSet
EndChar

StartChar: uni03BC
Encoding: 956 956 498
Width: 1187
VWidth: 0
GlyphClass: 2
Flags: W
LayerCount: 2
Fore
SplineSet
873 249 m 257
 828 188 738 92 556 92 c 256
 374 92 307 209 307 396 c 258
 307 1082 l 257
 157 1082 l 257
 157 -299 l 257
 307 -299 l 257
 307 41.4588 l 257
 368.079 0.281889 447.358 -20 544 -20 c 256
 705 -20 812 39 884 135 c 257
 893 0 l 257
 1022 0 l 257
 1022 1082 l 257
 873 1082 l 257
 873 249 l 257
EndSplineSet
EndChar

StartChar: emptyset
Encoding: 8709 8709 499
Width: 1678
VWidth: 0
GlyphClass: 2
Flags: W
LayerCount: 2
Fore
SplineSet
112 733 m 256
 112 1150 459 1473 832 1473 c 256
 1006 1473 1174 1403 1304 1286 c 257
 1481 1485 l 257
 1518 1456 l 257
 1337 1254 l 257
 1467 1122 1552 939 1552 733 c 256
 1552 316 1205 -7 832 -7 c 256
 662 -7 498 60 369 172 c 257
 177 -43 l 257
 145 -14 l 257
 337 202 l 257
 201 335 112 522 112 733 c 256
398 204 m 257
 519 99 673 37 832 37 c 256
 1183 37 1509 341 1509 733 c 256
 1509 926 1430 1097 1308 1222 c 257
 398 204 l 257
366 234 m 257
 1275 1254 l 257
 1153 1364 995 1429 832 1429 c 256
 481 1429 155 1125 155 733 c 256
 155 535 238 359 366 234 c 257
EndSplineSet
EndChar

StartChar: uni03A9
Encoding: 937 937 500
Width: 1603
VWidth: 0
GlyphClass: 2
Flags: W
LayerCount: 2
Fore
SplineSet
123 0 m 257
 108 117 l 257
 469 117 l 257
 268 256 123 485 123 773 c 256
 123 1183 419 1447 816 1447 c 256
 1228 1447 1486 1154 1486 770 c 256
 1486 475 1310 252 1134 117 c 257
 1491 117 l 257
 1478 0 l 257
 972 0 l 257
 971 110 l 257
 1178 248 1330 473 1330 751 c 256
 1330 1056 1155 1319 810 1319 c 256
 496 1319 279 1093 279 756 c 256
 279 480 422 247 634 110 c 257
 635 0 l 257
 123 0 l 257
EndSplineSet
EndChar

StartChar: uni0358
Encoding: 856 856 501
Width: 386
VWidth: 0
GlyphClass: 4
Flags: W
LayerCount: 2
Fore
SplineSet
309 1451 m 256
 309 1518 271 1556 199 1556 c 256
 127 1556 88 1518 88 1451 c 256
 88 1383 127 1344 199 1344 c 256
 271 1344 309 1383 309 1451 c 256
EndSplineSet
EndChar

StartChar: uni0259
Encoding: 601 601 502
Width: 1127
VWidth: 0
GlyphClass: 2
Flags: W
PickledData: "(dp1
S'com.fontlab.hintData'
p2
(dp3
S'hhints'
p4
((dp5
S'position'
p6
I-19
sS'width'
p7
I94
s(dp8
g6
I982
sg7
I92
stp9
ss."
HStem: -19 94 982 92
LayerCount: 2
Fore
SplineSet
873 462 m 257
 853 240 724 95 534 95 c 256
 346 95 260 228 256 462 c 257
 873 462 l 257
137 563 m 257
 137 559 129 489 129 462 c 256
 129 162 285 -20 539 -20 c 256
 804 -20 1029 185 1029 547 c 256
 1029 892 809 1105 523 1105 c 256
 373 1105 251 1062 159 1003 c 257
 196 900 l 257
 208 900 l 257
 300 952 382 990 504 990 c 256
 707 990 863 863 877 563 c 257
 137 563 l 257
EndSplineSet
EndChar
